<svg width="169" height="42" viewBox="0 0 169 42" fill="none" xmlns="http://www.w3.org/2000/svg">
<g clip-path="url(#clip0_376_2865)">
<path d="M70.597 21.0022C70.597 21.7868 70.5158 22.5393 70.3532 23.2592C70.1907 23.9711 69.9551 24.6385 69.6463 25.2615C69.3455 25.8844 68.9758 26.4588 68.5369 26.9846C68.0981 27.5024 67.5984 27.9595 67.0376 28.3558L71.5112 33.2099H68.8051C68.4151 33.2099 68.0616 33.1573 67.7447 33.0521C67.4359 32.947 67.1515 32.7528 66.8914 32.4696L64.3072 29.63C63.8928 29.7433 63.4662 29.8282 63.0274 29.8848C62.5967 29.9415 62.1457 29.9698 61.6743 29.9698C60.3416 29.9698 59.1226 29.7474 58.0175 29.3024C56.9205 28.8493 55.9778 28.2224 55.1895 27.4214C54.4094 26.6206 53.8041 25.674 53.3734 24.5819C52.9426 23.4817 52.7273 22.2884 52.7273 21.0022C52.7273 19.7158 52.9426 18.5266 53.3734 17.4345C53.8041 16.3342 54.4094 15.3836 55.1895 14.5828C55.9778 13.7818 56.9205 13.1589 58.0175 12.714C59.1226 12.2609 60.3416 12.0344 61.6743 12.0344C63.007 12.0344 64.222 12.2609 65.319 12.714C66.416 13.1671 67.3546 13.794 68.1347 14.5948C68.9148 15.3877 69.5203 16.3342 69.951 17.4345C70.3817 18.5266 70.597 19.7158 70.597 21.0022ZM67.2327 21.0022C67.2327 20.0394 67.1027 19.1778 66.8427 18.4174C66.5908 17.6489 66.225 16.9976 65.7456 16.4636C65.2662 15.9297 64.681 15.5212 63.9903 15.2381C63.3077 14.9549 62.5358 14.8134 61.6743 14.8134C60.8129 14.8134 60.0369 14.9549 59.3462 15.2381C58.6554 15.5212 58.0662 15.9297 57.5787 16.4636C57.0993 16.9976 56.7295 17.6489 56.4695 18.4174C56.2094 19.1778 56.0794 20.0394 56.0794 21.0022C56.0794 21.9648 56.2094 22.8304 56.4695 23.599C56.7295 24.3594 57.0993 25.0066 57.5787 25.5406C58.0662 26.0664 58.6554 26.4709 59.3462 26.7541C60.0369 27.0372 60.8129 27.1788 61.6743 27.1788C62.5358 27.1788 63.3077 27.0372 63.9903 26.7541C64.681 26.4709 65.2662 26.0664 65.7456 25.5406C66.225 25.0066 66.5908 24.3594 66.8427 23.599C67.1027 22.8304 67.2327 21.9648 67.2327 21.0022Z" fill="black"/>
<path d="M74.7975 17.3253V25.2373C74.7975 25.9977 74.9722 26.5883 75.3217 27.0089C75.6792 27.4215 76.2115 27.6278 76.9185 27.6278C77.4386 27.6278 77.9262 27.5146 78.3813 27.288C78.8363 27.0535 79.2669 26.7338 79.6733 26.3294V17.3253H82.6841V29.7757H80.8435C80.4534 29.7757 80.1974 29.5937 80.0755 29.2296L79.8684 28.2346C79.6083 28.4934 79.3401 28.7321 79.0639 28.9505C78.7875 29.1609 78.4909 29.3429 78.174 29.4966C77.8652 29.6422 77.5279 29.7555 77.1623 29.8364C76.8047 29.9254 76.4187 29.9698 76.0043 29.9698C75.3217 29.9698 74.7162 29.8566 74.1881 29.6301C73.668 29.3955 73.2291 29.0679 72.8716 28.6472C72.5141 28.2265 72.2418 27.7289 72.0549 27.1546C71.8761 26.5721 71.7867 25.933 71.7867 25.2373V17.3253H74.7975Z" fill="black"/>
<path d="M88.1294 17.3253V29.7757H85.1186V17.3253H88.1294ZM88.5803 13.697C88.5803 13.9559 88.5275 14.1985 88.4219 14.425C88.3163 14.6516 88.174 14.8498 87.9953 15.0196C87.8245 15.1895 87.6215 15.3271 87.3858 15.4323C87.1501 15.5293 86.8982 15.5779 86.6301 15.5779C86.37 15.5779 86.1222 15.5293 85.8865 15.4323C85.6589 15.3271 85.4598 15.1895 85.2892 15.0196C85.1186 14.8498 84.9804 14.6516 84.8748 14.425C84.7772 14.1985 84.7285 13.9559 84.7285 13.697C84.7285 13.4301 84.7772 13.1792 84.8748 12.9446C84.9804 12.71 85.1186 12.5077 85.2892 12.3378C85.4598 12.168 85.6589 12.0345 85.8865 11.9374C86.1222 11.8323 86.37 11.7797 86.6301 11.7797C86.8982 11.7797 87.1501 11.8323 87.3858 11.9374C87.6215 12.0345 87.8245 12.168 87.9953 12.3378C88.174 12.5077 88.3163 12.71 88.4219 12.9446C88.5275 13.1792 88.5803 13.4301 88.5803 13.697Z" fill="black"/>
<path d="M99.3555 19.9587C99.2661 20.0719 99.1767 20.1609 99.0873 20.2256C99.006 20.2903 98.8841 20.3227 98.7216 20.3227C98.5672 20.3227 98.4169 20.2782 98.2706 20.1891C98.1244 20.0921 97.9496 19.9869 97.7465 19.8737C97.5433 19.7523 97.2995 19.6471 97.0151 19.5582C96.7388 19.4611 96.3934 19.4126 95.979 19.4126C95.4507 19.4126 94.9876 19.5096 94.5894 19.7038C94.1912 19.8899 93.858 20.1609 93.5898 20.5168C93.3299 20.8728 93.1348 21.3056 93.0048 21.8153C92.8748 22.3169 92.8098 22.8872 92.8098 23.5263C92.8098 24.1896 92.8788 24.7803 93.0169 25.298C93.1632 25.8158 93.3705 26.2526 93.6387 26.6085C93.9068 26.9564 94.2318 27.2234 94.6138 27.4095C94.9957 27.5874 95.4264 27.6764 95.9058 27.6764C96.3853 27.6764 96.7713 27.6198 97.0639 27.5065C97.3645 27.3852 97.6165 27.2557 97.8196 27.1182C98.0227 26.9726 98.1974 26.8432 98.3437 26.7299C98.4982 26.6085 98.6688 26.5478 98.8557 26.5478C99.0995 26.5478 99.2823 26.6409 99.4042 26.827L100.27 27.9191C99.9365 28.3074 99.5748 28.6351 99.1849 28.902C98.7948 29.161 98.3884 29.3713 97.9659 29.5331C97.5514 29.6868 97.1208 29.796 96.6738 29.8607C96.2268 29.9255 95.7839 29.9578 95.3451 29.9578C94.5732 29.9578 93.8458 29.8162 93.1632 29.5331C92.4806 29.2418 91.8834 28.8212 91.3714 28.271C90.8676 27.7209 90.4653 27.0494 90.1646 26.2567C89.8721 25.4557 89.7258 24.5456 89.7258 23.5263C89.7258 22.6121 89.8558 21.7668 90.1159 20.9901C90.3841 20.2053 90.7742 19.5298 91.286 18.9636C91.798 18.3891 92.4319 17.9401 93.1876 17.6165C93.9434 17.293 94.8129 17.1312 95.7962 17.1312C96.7307 17.1312 97.5474 17.2809 98.2463 17.5802C98.9532 17.8795 99.5871 18.3083 100.148 18.8665L99.3555 19.9587Z" fill="black"/>
<path d="M104.257 11.7432V22.07H104.818C105.021 22.07 105.18 22.0417 105.293 21.9851C105.407 21.9284 105.529 21.8233 105.659 21.6695L108.767 17.847C108.905 17.6852 109.051 17.5598 109.206 17.4709C109.36 17.3738 109.564 17.3253 109.816 17.3253H112.57L108.682 21.9486C108.544 22.1185 108.401 22.2763 108.256 22.4219C108.109 22.5594 107.951 22.6808 107.78 22.7859C107.951 22.9073 108.101 23.0489 108.231 23.2106C108.361 23.3724 108.491 23.5464 108.621 23.7325L112.789 29.7756H110.072C109.836 29.7756 109.636 29.7352 109.475 29.6543C109.312 29.5734 109.166 29.4359 109.036 29.2417L105.854 24.5212C105.732 24.3352 105.611 24.2138 105.489 24.1572C105.366 24.1006 105.184 24.0723 104.94 24.0723H104.257V29.7756H101.246V11.7432H104.257Z" fill="black"/>
<path d="M115.575 12.2286C115.721 12.2286 115.844 12.2367 115.94 12.2529C116.038 12.261 116.124 12.2852 116.197 12.3258C116.279 12.3581 116.355 12.4107 116.429 12.4835C116.501 12.5482 116.583 12.6372 116.672 12.7505L125.924 24.4849C125.891 24.2018 125.867 23.9267 125.851 23.6598C125.843 23.3847 125.839 23.1298 125.839 22.8953V12.2286H128.727V29.7757H127.034C126.773 29.7757 126.558 29.7353 126.387 29.6543C126.217 29.5735 126.05 29.4278 125.887 29.2175L116.672 17.5316C116.696 17.7905 116.713 18.0493 116.721 18.3082C116.737 18.559 116.746 18.7896 116.746 18.9999V29.7757H113.856V12.2286H115.575Z" fill="black"/>
<path d="M136.476 17.1312C137.411 17.1312 138.256 17.2809 139.012 17.5802C139.775 17.8795 140.426 18.3042 140.962 18.8544C141.498 19.4045 141.913 20.076 142.206 20.8687C142.498 21.6616 142.644 22.5474 142.644 23.5263C142.644 24.5133 142.498 25.4031 142.206 26.196C141.913 26.9887 141.498 27.6643 140.962 28.2225C140.426 28.7807 139.775 29.2095 139.012 29.5088C138.256 29.8081 137.411 29.9578 136.476 29.9578C135.542 29.9578 134.693 29.8081 133.929 29.5088C133.166 29.2095 132.51 28.7807 131.967 28.2225C131.43 27.6643 131.012 26.9887 130.711 26.196C130.419 25.4031 130.272 24.5133 130.272 23.5263C130.272 22.5474 130.419 21.6616 130.711 20.8687C131.012 20.076 131.43 19.4045 131.967 18.8544C132.51 18.3042 133.166 17.8795 133.929 17.5802C134.693 17.2809 135.542 17.1312 136.476 17.1312ZM136.476 27.6521C137.517 27.6521 138.284 27.3043 138.78 26.6085C139.284 25.9128 139.536 24.8935 139.536 23.5505C139.536 22.2077 139.284 21.1842 138.78 20.4804C138.284 19.7766 137.517 19.4246 136.476 19.4246C135.42 19.4246 134.64 19.7806 134.136 20.4926C133.633 21.1964 133.381 22.2157 133.381 23.5505C133.381 24.8854 133.633 25.9047 134.136 26.6085C134.64 27.3043 135.42 27.6521 136.476 27.6521Z" fill="black"/>
<path d="M152.82 29.7756C152.429 29.7756 152.173 29.5937 152.051 29.2295L151.807 28.0282C151.547 28.3195 151.275 28.5824 150.991 28.817C150.706 29.0516 150.397 29.2539 150.064 29.4238C149.739 29.5937 149.386 29.723 149.004 29.8121C148.63 29.9091 148.224 29.9577 147.785 29.9577C147.102 29.9577 146.477 29.8161 145.907 29.533C145.339 29.2498 144.847 28.8413 144.433 28.3073C144.027 27.7653 143.71 27.0979 143.482 26.3051C143.263 25.5122 143.153 24.6062 143.153 23.5868C143.153 22.6646 143.279 21.8071 143.531 21.0142C143.783 20.2215 144.145 19.5338 144.616 18.9513C145.087 18.3689 145.652 17.9158 146.31 17.5922C146.968 17.2605 147.708 17.0947 148.528 17.0947C149.228 17.0947 149.825 17.208 150.321 17.4345C150.816 17.6529 151.259 17.9481 151.649 18.3203V11.7432H154.66V29.7756H152.82ZM148.809 27.5793C149.434 27.5793 149.967 27.4498 150.406 27.191C150.845 26.932 151.259 26.5639 151.649 26.0867V20.5046C151.308 20.092 150.934 19.8008 150.527 19.6309C150.13 19.461 149.699 19.376 149.236 19.376C148.78 19.376 148.367 19.461 147.993 19.6309C147.626 19.8008 147.313 20.0597 147.054 20.4076C146.802 20.7473 146.607 21.1841 146.468 21.7181C146.331 22.2439 146.261 22.8669 146.261 23.5868C146.261 24.3149 146.318 24.9338 146.432 25.4435C146.554 25.945 146.724 26.3577 146.944 26.6813C147.163 26.9967 147.431 27.2273 147.748 27.3729C148.065 27.5105 148.419 27.5793 148.809 27.5793Z" fill="black"/>
<path d="M162.115 17.1312C162.904 17.1312 163.626 17.2566 164.285 17.5073C164.951 17.7582 165.525 18.1262 166.003 18.6116C166.483 19.089 166.857 19.6795 167.125 20.3834C167.394 21.0791 167.527 21.876 167.527 22.7739C167.527 23.0004 167.515 23.1906 167.491 23.3443C167.474 23.4899 167.438 23.6072 167.381 23.6961C167.333 23.7771 167.263 23.8378 167.174 23.8782C167.085 23.9106 166.97 23.9267 166.833 23.9267H159.105C159.194 25.205 159.54 26.1434 160.14 26.7421C160.742 27.3407 161.538 27.64 162.53 27.64C163.017 27.64 163.436 27.5833 163.785 27.4702C164.143 27.3569 164.451 27.2315 164.712 27.0939C164.98 26.9564 165.212 26.831 165.406 26.7177C165.61 26.6045 165.805 26.5478 165.992 26.5478C166.114 26.5478 166.219 26.5722 166.308 26.6207C166.398 26.6692 166.475 26.738 166.54 26.827L167.418 27.9191C167.085 28.3074 166.711 28.6351 166.296 28.902C165.882 29.161 165.447 29.3713 164.992 29.5331C164.545 29.6868 164.086 29.796 163.615 29.8607C163.152 29.9255 162.7 29.9578 162.261 29.9578C161.392 29.9578 160.583 29.8162 159.836 29.5331C159.088 29.2418 158.438 28.8171 157.886 28.2589C157.332 27.6927 156.898 26.9969 156.581 26.1717C156.265 25.3384 156.106 24.3757 156.106 23.2836C156.106 22.4341 156.244 21.6373 156.52 20.893C156.797 20.1406 157.191 19.4894 157.703 18.9393C158.223 18.381 158.853 17.9401 159.592 17.6165C160.34 17.293 161.181 17.1312 162.115 17.1312ZM162.176 19.2791C161.298 19.2791 160.612 19.5259 160.116 20.0193C159.62 20.5128 159.303 21.2126 159.166 22.1186H164.821C164.821 21.7303 164.769 21.3663 164.663 21.0265C164.558 20.6787 164.395 20.3752 164.175 20.1164C163.956 19.8574 163.68 19.6552 163.346 19.5096C163.013 19.356 162.623 19.2791 162.176 19.2791Z" fill="black"/>
<mask id="mask0_376_2865" style="mask-type:luminance" maskUnits="userSpaceOnUse" x="0" y="0" width="43" height="42">
<path d="M42.2273 0H0.227295V42H42.2273V0Z" fill="white"/>
</mask>
<g mask="url(#mask0_376_2865)">
<path fill-rule="evenodd" clip-rule="evenodd" d="M21.2273 34.125C24.7927 34.125 28.0259 32.7033 30.3914 30.3961C30.4562 30.3327 30.56 30.3327 30.6241 30.3968L36.0766 35.8492L41.7359 41.5085C41.8583 41.6309 41.7322 41.835 41.568 41.7802L32.5363 38.7696C32.4896 38.7541 32.4382 38.7604 32.3966 38.7866C29.1614 40.8223 25.3318 42 21.2273 42C9.62931 42 0.227295 32.598 0.227295 21C0.227295 9.40201 9.62931 0 21.2273 0C32.8253 0 42.2273 9.40201 42.2273 21C42.2273 25.9537 40.5121 30.5067 37.6432 34.0977C37.5825 34.1737 37.4693 34.1795 37.4005 34.1107L26.3124 23.0226C26.19 22.9002 26.3161 22.6962 26.4803 22.751L33.5265 25.0998C33.6125 25.1283 33.7055 25.0819 33.733 24.9956C34.1353 23.7358 34.3523 22.3933 34.3523 21C34.3523 13.7512 28.4761 7.875 21.2273 7.875C13.9785 7.875 8.10229 13.7512 8.10229 21C8.10229 28.2487 13.9785 34.125 21.2273 34.125Z" fill="#00A4D6"/>
</g>
</g>
<defs>
<clipPath id="clip0_376_2865">
<rect width="168" height="42" fill="white" transform="translate(0.227295)"/>
</clipPath>
</defs>
</svg>
