<svg width="150" height="42" viewBox="0 0 150 42" fill="none" xmlns="http://www.w3.org/2000/svg">
<g clip-path="url(#clip0_376_2846)">
<path fill-rule="evenodd" clip-rule="evenodd" d="M15.9707 0C22.0437 0 27.4991 2.64797 31.2443 6.85256L15.8349 22.2364L10.6177 17.0238C10.2863 16.6943 9.88402 16.5296 9.41086 16.5296C8.93836 16.5296 8.53542 16.6937 8.20401 17.0238L5.79098 19.427C5.45958 19.7571 5.2942 20.1574 5.2942 20.6279C5.2942 21.0998 5.45958 21.5007 5.79098 21.8302L12.2144 28.226L14.628 30.6292C14.9595 30.9586 15.3617 31.1233 15.8349 31.1233C16.3074 31.1233 16.7103 30.9593 17.0411 30.6292L19.4554 28.2253L34.9351 12.787C35.8919 15.1528 36.4182 17.7384 36.4182 20.4468C36.4182 31.7395 27.2635 40.8942 15.9707 40.8942H0.227295V0H15.9707Z" fill="#52A3C5"/>
<path fill-rule="evenodd" clip-rule="evenodd" d="M0.227295 12.5042L6.47217 18.749L5.79098 19.4269C5.45958 19.757 5.2942 20.1573 5.2942 20.6279C5.2942 21.0525 5.42808 21.4193 5.69648 21.7291L5.79098 21.8301L12.2144 28.2259L14.628 30.6291C14.9595 30.9586 15.3617 31.1233 15.8349 31.1233C16.2608 31.1233 16.629 30.9901 16.94 30.723L17.0411 30.6291L19.4554 28.2253L34.9351 12.787C35.8919 15.1528 36.4182 17.7384 36.4182 20.4467C36.4182 31.7395 27.2635 40.8942 15.9707 40.8942H0.227295V12.5042Z" fill="#131415"/>
<path fill-rule="evenodd" clip-rule="evenodd" d="M91.5511 17.2692V22.72C91.5511 23.5731 91.3568 24.3324 90.967 24.9952C90.5778 25.6587 90.0121 26.2086 89.2706 26.6444C90.2353 27.1169 90.9722 27.7344 91.4821 28.4976C91.9921 29.2608 92.2467 30.1422 92.2467 31.141C92.2467 32.3223 91.9035 33.3532 91.2177 34.2346C90.5319 35.1159 89.5672 35.7971 88.3249 36.2788C87.0827 36.7605 85.6455 37.0007 84.0134 37.0007C82.3819 37.0007 80.95 36.7605 79.7169 36.2788C78.4832 35.7971 77.5283 35.1159 76.8517 34.2346C76.1751 33.3532 75.8365 32.3223 75.8365 31.141C75.8365 30.1422 76.0918 29.2608 76.6017 28.4976C77.1116 27.7344 77.8394 27.1169 78.785 26.6444C78.0618 26.2086 77.5053 25.6587 77.1162 24.9952C76.7264 24.3324 76.5321 23.5738 76.5321 22.72C76.5321 21.6109 76.8471 20.6482 77.4771 19.8305C78.1078 19.0135 78.9891 18.3815 80.1198 17.9366C81.2512 17.4917 82.5493 17.2692 84.014 17.2692H91.5511ZM141.431 15.3595C142.832 15.3595 144.106 15.6758 145.254 16.3091C146.402 16.9424 147.303 17.8316 147.956 18.9787C148.61 20.1258 148.936 21.4607 148.936 22.9838C148.936 24.5063 148.61 25.8418 147.956 26.9889C147.303 28.1354 146.402 29.0253 145.254 29.6585C144.106 30.2918 142.832 30.6081 141.431 30.6081C139.589 30.6081 138.123 30.0608 137.034 28.9649L136.895 28.8192V35.7282H132.526V15.5793H136.699V17.2856L136.826 17.1412C137.904 15.9534 139.439 15.3595 141.431 15.3595ZM84.014 28.2798C82.901 28.2798 82.0203 28.5252 81.3713 29.0154C80.7223 29.5063 80.3981 30.1691 80.3981 31.0052C80.3981 31.8589 80.7223 32.5309 81.3713 33.0218C82.021 33.5127 82.901 33.7575 84.014 33.7575C85.1447 33.7575 86.0399 33.5081 86.6981 33.008C87.3563 32.5086 87.6851 31.8406 87.6851 31.0052C87.6851 30.1691 87.3563 29.5063 86.6981 29.0154C86.0399 28.5252 85.1447 28.2798 84.014 28.2798ZM55.1653 11.1162L55.5197 11.1195C57.5147 11.1615 59.2878 11.5605 60.8386 12.3158C62.4812 13.1158 63.7576 14.2419 64.6678 15.6948C65.578 17.1471 66.0328 18.8389 66.0328 20.7696C66.0328 22.7003 65.578 24.3921 64.6678 25.8451C63.7576 27.2973 62.4812 28.4241 60.8386 29.2234C59.2878 29.9794 57.5147 30.3784 55.5203 30.4198L55.1659 30.4237H46.2134V11.1162H55.1659H55.1653ZM73.7057 15.5721V30.4231H69.23V15.5728L73.7057 15.5721ZM98.8531 15.5721V30.4231H94.3775V15.5728L98.8531 15.5721ZM107.251 11.7528V15.4304H111.003V18.7996H107.251V24.9486L107.254 25.1048C107.279 25.6659 107.441 26.1049 107.741 26.4226C108.068 26.7691 108.53 26.9423 109.127 26.9423C109.818 26.9423 110.406 26.7546 110.891 26.3806L112.067 29.4689L111.901 29.5844C111.504 29.8456 111.032 30.0457 110.485 30.1848C109.86 30.3443 109.202 30.4237 108.511 30.4237C106.719 30.4237 105.332 29.965 104.353 29.0476C103.373 28.1308 102.883 26.7835 102.883 25.0051V18.7996H100.559V15.4304H102.883V11.7534L107.251 11.7528ZM120.794 14.7229C122.511 14.7229 124.103 15.2427 125.413 16.1286L125.411 15.2414L129.092 15.2919L129.116 30.2846L125.435 30.2347L125.434 29.0036C124.12 29.8981 122.52 30.4237 120.794 30.4237C116.327 30.4237 112.706 26.9088 112.706 22.573C112.706 18.2378 116.327 14.7229 120.794 14.7229ZM140.675 18.8829C139.555 18.8829 138.636 19.2543 137.917 19.9972C137.198 20.7408 136.839 21.7363 136.839 22.9838C136.839 24.2313 137.198 25.2269 137.917 25.9698C138.636 26.7133 139.555 27.0854 140.675 27.0854C141.796 27.0854 142.715 26.7133 143.434 25.9698C144.153 25.2269 144.512 24.2313 144.512 22.9838C144.512 21.7363 144.153 20.7408 143.434 19.9979C142.715 19.2543 141.796 18.8829 140.675 18.8829ZM54.9408 14.7846H50.7737V26.7546H54.9408C56.9116 26.7546 58.4833 26.2172 59.6567 25.1416C60.8294 24.0653 61.4154 22.6084 61.4154 20.7696C61.4154 18.9308 60.8294 17.4739 59.6567 16.3983C58.4833 15.3221 56.9116 14.7846 54.9408 14.7846ZM120.794 18.854C118.678 18.854 116.962 20.5189 116.962 22.5723C116.962 24.6264 118.678 26.2913 120.794 26.2913C122.909 26.2913 124.624 24.6264 124.624 22.5723C124.624 20.5183 122.909 18.854 120.794 18.854ZM84.014 20.5117C83.1051 20.5117 82.3773 20.725 81.8307 21.1522C81.2834 21.5788 81.0104 22.1648 81.0104 22.9097C81.0104 23.6368 81.2794 24.209 81.8169 24.6271C82.3544 25.0451 83.0867 25.2538 84.014 25.2538C84.9413 25.2538 85.6829 25.0451 86.2387 24.6271C86.7952 24.209 87.0735 23.6361 87.0735 22.9097C87.0735 22.1648 86.7952 21.5788 86.2387 21.1522C85.6829 20.7257 84.9413 20.5117 84.014 20.5117ZM71.3615 8.78125C72.1799 8.78125 72.8466 9.00569 73.3605 9.45456C73.8743 9.90344 74.1316 10.4645 74.1316 11.1372C74.1316 11.8663 73.8743 12.4694 73.3605 12.9465C72.8466 13.4229 72.1799 13.6618 71.3609 13.6618C70.5425 13.6618 69.8758 13.4275 69.3619 12.9603C68.8474 12.493 68.5908 11.9135 68.5908 11.2212C68.5908 10.5295 68.8474 9.95003 69.3619 9.48213C69.8758 9.01488 70.5432 8.78125 71.3615 8.78125ZM96.7223 8.78125C97.5413 8.78125 98.2074 9.00569 98.7219 9.45456C99.2357 9.90344 99.493 10.4645 99.493 11.1372C99.493 11.8663 99.2357 12.4694 98.7219 12.9465C98.2074 13.4229 97.5406 13.6618 96.7223 13.6618C95.9033 13.6618 95.2372 13.4275 94.7227 12.9603C94.2089 12.493 93.9516 11.9135 93.9516 11.2212C93.9516 10.5295 94.2089 9.95003 94.7227 9.48213C95.2372 9.01488 95.904 8.78125 96.7223 8.78125Z" fill="#191919"/>
</g>
<defs>
<clipPath id="clip0_376_2846">
<rect width="149.625" height="42" fill="white" transform="translate(0.227295)"/>
</clipPath>
</defs>
</svg>
