<svg width="194" height="30" viewBox="0 0 194 30" fill="none" xmlns="http://www.w3.org/2000/svg">
<g clip-path="url(#clip0_376_2862)">
<path fill-rule="evenodd" clip-rule="evenodd" d="M0.727295 0.996304H5.50105V29.0125H0.727295V0.996304ZM39.4042 18.9138L20.0111 0.564429V29.0119H24.6011V10.7857L43.9942 29.445V0.996304H39.4042V18.9138ZM68.9073 13.4069L64.3642 11.7638C62.0229 10.9438 60.6911 10.1213 60.6911 8.0688C60.6911 5.78755 62.8036 4.69193 65.6486 4.69193C68.953 4.69193 71.5242 5.9238 73.8642 7.7038V2.82068C71.6161 1.3613 68.7242 0.539429 65.5567 0.539429C60.3698 0.539429 56.0554 3.2313 56.0554 8.15943C56.0554 12.7675 58.9011 14.7757 62.6648 16.1444L66.7498 17.605C69.2742 18.5632 70.6973 19.4307 70.6973 21.62C70.6973 24.1294 68.448 25.2707 65.2348 25.2707C61.9311 25.2707 58.8548 24.085 56.2842 22.0307V27.0044C58.2586 28.3738 61.4711 29.4688 65.2348 29.4688C70.9736 29.4688 75.333 26.6388 75.333 21.5288C75.333 17.4682 73.3142 15.0038 68.9073 13.4069ZM86.0873 0.996304H90.8605V29.0125H86.0873V0.996304ZM116.418 0.996929H105.608V29.0125H116.418C124.726 29.0125 130.097 23.5369 130.097 15.0038C130.097 6.47193 124.725 0.996929 116.418 0.996929ZM116.234 24.77H110.382V5.19443H116.234C122.154 5.19443 125.322 8.9813 125.322 15.0038C125.322 20.9807 122.154 24.77 116.234 24.77ZM140.93 29.0125H158.027V24.77H145.612V16.0875H156.741V11.935H145.612V5.1938H158.027V0.996304H140.93V29.0125ZM182.801 17.4682C187.254 16.7838 189.353 14.0913 189.353 9.3913C189.353 3.9163 185.59 0.996304 179.76 0.996304H169.536V29.0125H174.309V17.6507H177.706L187.517 29.0125H192.934L182.801 17.4682ZM174.31 13.6807V5.10255H179.668C182.835 5.10255 184.626 6.79068 184.626 9.3913C184.626 11.9925 182.835 13.6807 179.668 13.6807H174.31Z" fill="#111111"/>
</g>
<defs>
<clipPath id="clip0_376_2862">
<rect width="192.5" height="30" fill="white" transform="translate(0.727295)"/>
</clipPath>
</defs>
</svg>
