<svg width="173" height="38" viewBox="0 0 173 38" fill="none" xmlns="http://www.w3.org/2000/svg">
<g clip-path="url(#clip0_376_4128)">
<mask id="mask0_376_4128" style="mask-type:luminance" maskUnits="userSpaceOnUse" x="0" y="0" width="173" height="38">
<path d="M172.727 0H0V38H172.727V0Z" fill="white"/>
</mask>
<g mask="url(#mask0_376_4128)">
<path d="M63.4478 1.30225H69.98L81.087 21.3944L92.1944 1.30226H98.585V34.3174H93.2556V9.01378L83.5162 26.5354H78.5165L68.7771 9.01378V34.3174H63.4478V1.30225Z" fill="#1C2B33"/>
<path d="M115.776 34.9114C113.308 34.9114 111.138 34.365 109.268 33.2723C107.396 32.1797 105.938 30.6665 104.893 28.7328C103.847 26.7989 103.324 24.5822 103.325 22.0826C103.325 19.5515 103.836 17.3112 104.857 15.3616C105.879 13.4124 107.298 11.8874 109.114 10.7865C110.93 9.68629 113.017 9.13605 115.375 9.13574C117.718 9.13574 119.734 9.68992 121.424 10.7982C123.114 11.9068 124.415 13.4594 125.327 15.4559C126.238 17.4526 126.694 19.7952 126.695 22.4834V23.9453H108.607C108.937 25.958 109.751 27.542 111.048 28.6972C112.345 29.8528 113.984 30.4306 115.965 30.4305C117.553 30.4305 118.92 30.1947 120.068 29.723C121.215 29.2514 122.293 28.5361 123.299 27.5771L126.129 31.0436C123.314 33.6223 119.863 34.9114 115.776 34.9114ZM119.667 15.326C118.551 14.1864 117.089 13.6165 115.281 13.6163C113.52 13.6163 112.046 14.1981 110.859 15.3616C109.672 16.525 108.921 18.0893 108.607 20.0545H121.577C121.42 18.042 120.783 16.4659 119.667 15.326Z" fill="#1C2B33"/>
<path d="M133.156 14.0889H128.251V9.72613H133.156V2.51001H138.297V9.72613H145.749V14.0889H138.297V25.1489C138.297 26.9882 138.612 28.3008 139.241 29.087C139.869 29.8734 140.946 30.2664 142.471 30.2661C143.147 30.2661 143.721 30.2386 144.193 30.1836C144.665 30.1288 145.183 30.0541 145.749 29.9595V34.275C145.103 34.4619 144.446 34.6039 143.78 34.6996C143.019 34.8119 142.25 34.8668 141.481 34.8647C135.931 34.8647 133.156 31.8305 133.156 25.7621V14.0889Z" fill="#1C2B33"/>
<path d="M172.54 34.3216H167.493V30.8786C166.597 32.1679 165.457 33.1623 164.074 33.8617C162.69 34.5611 161.118 34.911 159.357 34.9114C157.188 34.9114 155.266 34.3571 153.591 33.2486C151.917 32.1403 150.6 30.6153 149.641 28.6738C148.682 26.7321 148.203 24.5114 148.203 22.0118C148.203 19.4964 148.69 17.2717 149.665 15.3378C150.64 13.4043 151.988 11.8871 153.71 10.7865C155.431 9.68629 157.408 9.13605 159.64 9.13574C161.322 9.13574 162.832 9.46202 164.168 10.1146C165.486 10.7523 166.628 11.7037 167.493 12.8853V9.72543H172.54V34.3216ZM167.399 18.333C166.849 16.9337 165.98 15.8292 164.793 15.0195C163.606 14.2099 162.234 13.8051 160.678 13.8051C158.477 13.8051 156.724 14.544 155.419 16.0218C154.114 17.4996 153.462 19.4963 153.462 22.0118C153.462 24.5431 154.091 26.5477 155.348 28.0253C156.606 29.5032 158.312 30.242 160.466 30.2419C162.053 30.2419 163.468 29.8331 164.711 29.0155C165.952 28.1984 166.849 27.098 167.399 25.7141V18.333Z" fill="#1C2B33"/>
<path d="M15.2057 0.188965C15.1889 0.188965 15.1722 0.189024 15.1554 0.189111L15.0867 5.86617C15.1024 5.866 15.1181 5.86586 15.1339 5.86586C18.8705 5.86586 21.769 8.81211 28.0686 19.4234L28.4527 20.0694L28.4778 20.1117L32.0043 14.8205L31.9799 14.7796C31.15 13.4298 30.3527 12.1879 29.588 11.0539C28.7012 9.73996 27.8531 8.56618 27.0301 7.51821C22.8626 2.21198 19.3765 0.188965 15.2057 0.188965Z" fill="url(#paint0_linear_376_4128)"/>
<path d="M15.155 0.189111C10.964 0.210673 7.25878 2.92077 4.58331 7.0678C4.57546 7.07993 4.56762 7.09209 4.55981 7.10428L9.47093 9.77734C9.47891 9.76525 9.48689 9.75316 9.49491 9.7411C11.0572 7.38883 13.0015 5.88852 15.0863 5.86617C15.102 5.866 15.1177 5.86586 15.1335 5.86586L15.2053 0.188965C15.1885 0.188965 15.1718 0.189024 15.155 0.189111Z" fill="url(#paint1_linear_376_4128)"/>
<path d="M4.58305 7.07104C4.57524 7.08317 4.5674 7.09533 4.55956 7.10753C2.80149 9.84425 1.49089 13.2026 0.782609 16.8256C0.779542 16.8413 0.776484 16.8569 0.773438 16.8727L6.29088 18.1745C6.29378 18.1588 6.29668 18.143 6.29958 18.1273C6.88934 14.9433 8.01214 11.9902 9.47068 9.78058C9.47863 9.76849 9.48664 9.7564 9.49466 9.74435L4.58305 7.07104Z" fill="url(#paint2_linear_376_4128)"/>
<path d="M6.2998 18.1291L0.782807 16.8274C0.77974 16.8431 0.776682 16.8588 0.773636 16.8745C0.387417 18.867 0.19093 20.8916 0.186807 22.9212C0.186775 22.9376 0.186763 22.954 0.186769 22.9704L5.84515 23.4766C5.8447 23.4601 5.84422 23.4438 5.84384 23.4273C5.84104 23.3096 5.83962 23.1903 5.83959 23.0694C5.84242 21.4281 5.99352 19.7904 6.2911 18.1763C6.29396 18.1606 6.29687 18.1449 6.2998 18.1291Z" fill="url(#paint3_linear_376_4128)"/>
<path d="M6.01722 25.2341C5.91573 24.6508 5.85821 24.0607 5.84515 23.4688C5.8447 23.4523 5.84422 23.436 5.84384 23.4195L0.186807 22.9133C0.186775 22.9297 0.186763 22.9461 0.186769 22.9626C0.186769 24.2257 0.292106 25.4116 0.496826 26.5041C0.499787 26.5199 0.502699 26.5354 0.505701 26.5512L6.02579 25.2814C6.02289 25.2657 6.02005 25.2499 6.01722 25.2341Z" fill="url(#paint4_linear_376_4128)"/>
<path d="M7.30636 28.1698C6.69066 27.4978 6.2549 26.5283 6.02579 25.2885C6.02289 25.2728 6.02009 25.257 6.01726 25.2412L0.496826 26.5112C0.499783 26.527 0.502695 26.5425 0.505701 26.5583C0.922955 28.749 1.74126 30.5748 2.91315 31.956C2.92357 31.9683 2.93403 31.9805 2.94452 31.9928L7.33928 28.2052C7.3283 28.1935 7.31724 28.1817 7.30636 28.1698Z" fill="url(#paint5_linear_376_4128)"/>
<path d="M23.661 12.462C20.3344 17.5645 18.3192 20.7649 18.3192 20.7649C13.8878 27.7113 12.3548 29.2682 9.88763 29.2682C8.85815 29.2682 7.9981 28.9017 7.33922 28.201C7.32823 28.1893 7.31721 28.1775 7.30633 28.1656L2.91309 31.9518C2.9235 31.9641 2.93396 31.9763 2.94446 31.9886C4.56256 33.8747 6.84653 34.9214 9.67207 34.9214C13.9469 34.9214 17.0214 32.9059 22.487 23.3518C22.487 23.3518 24.7654 19.3284 26.3328 16.5568C25.3619 14.9892 24.4784 13.6322 23.661 12.462Z" fill="#0082FB"/>
<path d="M29.5905 4.41272C29.5793 4.42464 29.5678 4.4368 29.5566 4.44875C28.6831 5.37947 27.8447 6.41888 27.0291 7.52167C27.8521 8.56968 28.7017 9.74574 29.5886 11.0596C30.6338 9.44644 31.6094 8.1399 32.5656 7.13846C32.577 7.12661 32.5881 7.11507 32.5994 7.10326L29.5905 4.41272Z" fill="url(#paint6_linear_376_4128)"/>
<path d="M45.7408 3.908C43.4207 1.5642 40.6547 0.188965 37.6976 0.188965C34.5792 0.188965 31.9563 1.89775 29.5905 4.40818C29.5793 4.42007 29.5678 4.43223 29.5566 4.44418L32.5657 7.13389C32.577 7.12204 32.5881 7.1105 32.5994 7.09872C34.1579 5.47761 35.6663 4.66821 37.3383 4.66821C39.1381 4.66821 40.8226 5.51536 42.2814 7.00051C42.2928 7.01215 42.3042 7.02369 42.3156 7.0354L45.7754 3.94289C45.764 3.93118 45.7522 3.91964 45.7408 3.908Z" fill="#0082FB"/>
<path d="M52.4475 22.1676C52.3176 14.6421 49.6842 7.91448 45.7754 3.94151C45.7637 3.9298 45.7523 3.91826 45.7405 3.90662L42.2815 6.99913C42.2929 7.01077 42.3043 7.02231 42.3157 7.03402C45.2562 10.0546 47.2733 15.6731 47.4567 22.166C47.4571 22.1823 47.4574 22.1986 47.4581 22.215L52.4482 22.2166C52.4482 22.2003 52.4479 22.1839 52.4475 22.1676Z" fill="url(#paint7_linear_376_4128)"/>
<path d="M52.4481 22.2219C52.4481 22.2056 52.4478 22.1892 52.4474 22.1729L47.4567 22.1713C47.457 22.1876 47.4573 22.2039 47.458 22.2203C47.466 22.525 47.4701 22.8316 47.4701 23.1401C47.4701 24.9103 47.2059 26.3413 46.668 27.3745C46.66 27.3898 46.6517 27.4052 46.6438 27.4203L50.3647 31.2904C50.374 31.2763 50.383 31.2624 50.3923 31.2482C51.7431 29.1638 52.4523 26.2682 52.4523 22.7568C52.4523 22.5781 52.4509 22.3997 52.4481 22.2219Z" fill="url(#paint8_linear_376_4128)"/>
<path d="M46.6684 27.3666C46.6605 27.3819 46.6522 27.3973 46.6442 27.4124C46.1789 28.2833 45.5146 28.8641 44.6465 29.1181L46.3427 34.4642C46.5672 34.3879 46.7859 34.3022 46.9987 34.2072C47.0622 34.1789 47.1255 34.1498 47.188 34.1199C47.2239 34.1026 47.2598 34.0851 47.2954 34.0673C48.4171 33.5083 49.365 32.6837 50.1316 31.6214C50.1786 31.5565 50.2249 31.4911 50.2701 31.4245C50.3023 31.3775 50.334 31.3302 50.3651 31.2824C50.3745 31.2684 50.3834 31.2544 50.3928 31.2403L46.6684 27.3666Z" fill="url(#paint9_linear_376_4128)"/>
<path d="M43.5656 29.263C42.997 29.263 42.495 29.1783 42.0038 28.9589L40.2668 34.4321C41.2431 34.7656 42.2846 34.9158 43.4461 34.9158C44.5159 34.9158 45.4981 34.7559 46.3886 34.4472L44.6928 29.103C44.3273 29.2125 43.9473 29.2664 43.5656 29.263Z" fill="url(#paint10_linear_376_4128)"/>
<path d="M40.0903 27.397C40.0796 27.3847 40.0689 27.3723 40.0578 27.3597L36.0613 31.5163C36.0727 31.5282 36.0837 31.5402 36.0948 31.552C37.4835 33.032 38.8097 33.95 40.3135 34.4538L42.049 28.9846C41.4155 28.7124 40.8023 28.219 40.0903 27.397Z" fill="url(#paint11_linear_376_4128)"/>
<path d="M40.0583 27.3557C38.8595 25.9616 37.3765 23.6405 35.044 19.8871L32.004 14.8172L31.9796 14.7764L28.4524 20.0661L28.4775 20.1084L30.6315 23.7319C32.7193 27.2258 34.4203 29.7534 36.0617 31.5122C36.0731 31.5242 36.0841 31.5361 36.0952 31.548L40.0904 27.393C40.0797 27.3807 40.069 27.3683 40.0583 27.3557Z" fill="url(#paint12_linear_376_4128)"/>
</g>
</g>
<defs>
<linearGradient id="paint0_linear_376_4128" x1="29.6603" y1="17.9599" x2="17.9522" y2="2.61826" gradientUnits="userSpaceOnUse">
<stop offset="0.0006" stop-color="#0867DF"/>
<stop offset="0.4539" stop-color="#0668E1"/>
<stop offset="0.8591" stop-color="#0064E0"/>
</linearGradient>
<linearGradient id="paint1_linear_376_4128" x1="6.86666" y1="8.02171" x2="14.8933" y2="1.92798" gradientUnits="userSpaceOnUse">
<stop offset="0.1323" stop-color="#0064DF"/>
<stop offset="0.9988" stop-color="#0064E0"/>
</linearGradient>
<linearGradient id="paint2_linear_376_4128" x1="3.46426" y1="16.9672" x2="6.68404" y2="8.86212" gradientUnits="userSpaceOnUse">
<stop offset="0.0147" stop-color="#0072EC"/>
<stop offset="0.6881" stop-color="#0064DF"/>
</linearGradient>
<linearGradient id="paint3_linear_376_4128" x1="3.02723" y1="22.8243" x2="3.39977" y2="17.8743" gradientUnits="userSpaceOnUse">
<stop offset="0.0731" stop-color="#007CF6"/>
<stop offset="0.9943" stop-color="#0072EC"/>
</linearGradient>
<linearGradient id="paint4_linear_376_4128" x1="3.23211" y1="25.5053" x2="2.96562" y2="23.5221" gradientUnits="userSpaceOnUse">
<stop offset="0.0731" stop-color="#007FF9"/>
<stop offset="1" stop-color="#007CF6"/>
</linearGradient>
<linearGradient id="paint5_linear_376_4128" x1="3.07568" y1="26.0333" x2="4.73645" y2="29.5558" gradientUnits="userSpaceOnUse">
<stop offset="0.0731" stop-color="#007FF9"/>
<stop offset="1" stop-color="#0082FB"/>
</linearGradient>
<linearGradient id="paint6_linear_376_4128" x1="28.6015" y1="8.98972" x2="30.7971" y2="5.9531" gradientUnits="userSpaceOnUse">
<stop offset="0.2799" stop-color="#007FF8"/>
<stop offset="0.9141" stop-color="#0082FB"/>
</linearGradient>
<linearGradient id="paint7_linear_376_4128" x1="45.2945" y1="5.04821" x2="49.8877" y2="21.9446" gradientUnits="userSpaceOnUse">
<stop stop-color="#0082FB"/>
<stop offset="0.9995" stop-color="#0081FA"/>
</linearGradient>
<linearGradient id="paint8_linear_376_4128" x1="50.9969" y1="22.5963" x2="48.0899" y2="28.4705" gradientUnits="userSpaceOnUse">
<stop offset="0.0619" stop-color="#0081FA"/>
<stop offset="1" stop-color="#0080F9"/>
</linearGradient>
<linearGradient id="paint9_linear_376_4128" x1="45.7799" y1="31.5768" x2="48.4973" y2="29.7261" gradientUnits="userSpaceOnUse">
<stop stop-color="#027AF3"/>
<stop offset="1" stop-color="#0080F9"/>
</linearGradient>
<linearGradient id="paint10_linear_376_4128" x1="41.5177" y1="31.9374" x2="45.2936" y2="31.9374" gradientUnits="userSpaceOnUse">
<stop stop-color="#0377EF"/>
<stop offset="0.9994" stop-color="#0279F1"/>
</linearGradient>
<linearGradient id="paint11_linear_376_4128" x1="38.2349" y1="29.8638" x2="40.9495" y2="31.4609" gradientUnits="userSpaceOnUse">
<stop offset="0.0019" stop-color="#0471E9"/>
<stop offset="1" stop-color="#0377EF"/>
</linearGradient>
<linearGradient id="paint12_linear_376_4128" x1="29.9546" y1="18.0835" x2="38.6505" y2="29.0169" gradientUnits="userSpaceOnUse">
<stop offset="0.2765" stop-color="#0867DF"/>
<stop offset="1" stop-color="#0471E9"/>
</linearGradient>
<clipPath id="clip0_376_4128">
<rect width="172.727" height="38" fill="white"/>
</clipPath>
</defs>
</svg>
