<svg width="173" height="38" viewBox="0 0 173 38" fill="none" xmlns="http://www.w3.org/2000/svg">
<g clip-path="url(#clip0_376_5422)">
<mask id="mask0_376_5422" style="mask-type:luminance" maskUnits="userSpaceOnUse" x="0" y="0" width="173" height="38">
<path d="M172.727 0H0V38H172.727V0Z" fill="white"/>
</mask>
<g mask="url(#mask0_376_5422)">
<path d="M63.4478 1.30176H69.98L81.087 21.3939L92.1944 1.30178H98.585V34.3169H93.2556V9.0133L83.5162 26.5349H78.5165L68.7771 9.0133V34.3169H63.4478V1.30176Z" fill="white"/>
<path d="M115.776 34.9104C113.308 34.9104 111.138 34.364 109.268 33.2714C107.396 32.1787 105.938 30.6655 104.893 28.7318C103.847 26.798 103.324 24.5812 103.325 22.0816C103.325 19.5505 103.836 17.3102 104.857 15.3606C105.879 13.4114 107.298 11.8864 109.114 10.7855C110.93 9.68532 113.017 9.13508 115.375 9.13477C117.718 9.13477 119.734 9.68894 121.424 10.7972C123.114 11.9059 124.415 13.4584 125.327 15.4549C126.238 17.4517 126.694 19.7942 126.695 22.4824V23.9443H108.607C108.937 25.9571 109.751 27.541 111.048 28.6962C112.345 29.8518 113.984 30.4296 115.965 30.4295C117.553 30.4295 118.92 30.1937 120.068 29.722C121.215 29.2504 122.293 28.5351 123.299 27.5762L126.129 31.0427C123.314 33.6213 119.863 34.9104 115.776 34.9104ZM119.667 15.3251C118.551 14.1854 117.089 13.6155 115.281 13.6153C113.52 13.6153 112.046 14.1971 110.859 15.3606C109.672 16.524 108.921 18.0883 108.607 20.0535H121.577C121.42 18.041 120.783 16.4649 119.667 15.3251Z" fill="white"/>
<path d="M133.156 14.0887H128.251V9.72589H133.156V2.50977H138.297V9.72589H145.749V14.0887H138.297V25.1486C138.297 26.9879 138.612 28.3006 139.241 29.0868C139.869 29.8731 140.946 30.2662 142.471 30.2659C143.147 30.2659 143.721 30.2384 144.193 30.1834C144.665 30.1285 145.183 30.0539 145.749 29.9593V34.2748C145.103 34.4616 144.446 34.6037 143.78 34.6993C143.019 34.8116 142.25 34.8666 141.481 34.8645C135.931 34.8645 133.156 31.8302 133.156 25.7618V14.0887Z" fill="white"/>
<path d="M172.54 34.3206H167.493V30.8776C166.597 32.1669 165.457 33.1613 164.074 33.8607C162.69 34.5601 161.118 34.9101 159.357 34.9104C157.188 34.9104 155.266 34.3561 153.591 33.2476C151.917 32.1393 150.6 30.6143 149.641 28.6728C148.682 26.7311 148.203 24.5105 148.203 22.0108C148.203 19.4954 148.69 17.2708 149.665 15.3368C150.64 13.4033 151.988 11.8862 153.71 10.7855C155.431 9.68532 157.408 9.13508 159.64 9.13477C161.322 9.13477 162.832 9.46105 164.168 10.1136C165.486 10.7513 166.628 11.7027 167.493 12.8844V9.72446H172.54V34.3206ZM167.399 18.332C166.849 16.9327 165.98 15.8282 164.793 15.0185C163.606 14.2089 162.234 13.8041 160.678 13.8041C158.477 13.8041 156.724 14.543 155.419 16.0208C154.114 17.4986 153.462 19.4953 153.462 22.0108C153.462 24.5421 154.091 26.5467 155.348 28.0243C156.606 29.5022 158.312 30.2411 160.466 30.241C162.053 30.241 163.468 29.8322 164.711 29.0146C165.952 28.1975 166.849 27.097 167.399 25.7131V18.332Z" fill="white"/>
<path d="M15.2057 0.188477C15.1889 0.188477 15.1722 0.188536 15.1554 0.188623L15.0867 5.86569C15.1024 5.86551 15.1181 5.86537 15.1339 5.86537C18.8705 5.86537 21.769 8.81162 28.0686 19.4229L28.4527 20.0689L28.4778 20.1112L32.0043 14.82L31.9799 14.7791C31.15 13.4293 30.3527 12.1874 29.588 11.0534C28.7012 9.73948 27.8531 8.56569 27.0301 7.51772C22.8626 2.21149 19.3765 0.188477 15.2057 0.188477Z" fill="url(#paint0_linear_376_5422)"/>
<path d="M15.155 0.188623C10.964 0.210185 7.25878 2.92028 4.58331 7.06731C4.57546 7.07944 4.56762 7.0916 4.55981 7.10379L9.47093 9.77685C9.47891 9.76476 9.48689 9.75267 9.49491 9.74061C11.0572 7.38834 13.0015 5.88804 15.0863 5.86568C15.102 5.86551 15.1177 5.86537 15.1335 5.86537L15.2053 0.188477C15.1885 0.188477 15.1718 0.188536 15.155 0.188623Z" fill="url(#paint1_linear_376_5422)"/>
<path d="M4.58305 7.07031C4.57524 7.08244 4.5674 7.0946 4.55956 7.10679C2.80149 9.84352 1.49089 13.2019 0.782609 16.8248C0.779542 16.8405 0.776484 16.8562 0.773438 16.8719L6.29088 18.1738C6.29378 18.1581 6.29668 18.1423 6.29958 18.1266C6.88934 14.9426 8.01214 11.9895 9.47068 9.77985C9.47863 9.76776 9.48664 9.75567 9.49466 9.74361L4.58305 7.07031Z" fill="url(#paint2_linear_376_5422)"/>
<path d="M6.2998 18.1289L0.782807 16.8271C0.77974 16.8428 0.776682 16.8585 0.773636 16.8742C0.387417 18.8667 0.19093 20.8914 0.186807 22.9209C0.186775 22.9373 0.186763 22.9538 0.186769 22.9701L5.84515 23.4764C5.8447 23.4599 5.84422 23.4436 5.84384 23.4271C5.84104 23.3094 5.83962 23.1901 5.83959 23.0692C5.84242 21.4278 5.99352 19.7902 6.2911 18.1761C6.29396 18.1604 6.29687 18.1446 6.2998 18.1289Z" fill="url(#paint3_linear_376_5422)"/>
<path d="M6.01722 25.2339C5.91573 24.6506 5.85821 24.0604 5.84515 23.4685C5.8447 23.4521 5.84422 23.4358 5.84384 23.4192L0.186807 22.9131C0.186775 22.9295 0.186763 22.9459 0.186769 22.9623C0.186769 24.2255 0.292106 25.4113 0.496826 26.5039C0.499787 26.5197 0.502699 26.5352 0.505701 26.551L6.02579 25.2811C6.02289 25.2655 6.02005 25.2497 6.01722 25.2339Z" fill="url(#paint4_linear_376_5422)"/>
<path d="M7.30636 28.1689C6.69066 27.4968 6.2549 26.5273 6.02579 25.2875C6.02289 25.2718 6.02009 25.256 6.01726 25.2402L0.496826 26.5102C0.499783 26.526 0.502695 26.5415 0.505701 26.5573C0.922955 28.748 1.74126 30.5738 2.91315 31.955C2.92357 31.9673 2.93403 31.9796 2.94452 31.9918L7.33928 28.2042C7.3283 28.1925 7.31724 28.1807 7.30636 28.1689Z" fill="url(#paint5_linear_376_5422)"/>
<path d="M23.661 12.4619C20.3344 17.5644 18.3192 20.7648 18.3192 20.7648C13.8878 27.7112 12.3548 29.2681 9.88763 29.2681C8.85815 29.2681 7.9981 28.9015 7.33922 28.2009C7.32823 28.1892 7.31721 28.1773 7.30633 28.1655L2.91309 31.9517C2.9235 31.9639 2.93396 31.9762 2.94446 31.9885C4.56256 33.8746 6.84653 34.9212 9.67207 34.9212C13.9469 34.9212 17.0214 32.9057 22.487 23.3517C22.487 23.3517 24.7654 19.3282 26.3328 16.5567C25.3619 14.9891 24.4784 13.632 23.661 12.4619Z" fill="#0082FB"/>
<path d="M29.5905 4.41211C29.5793 4.42403 29.5678 4.43619 29.5566 4.44814C28.6831 5.37886 27.8447 6.41827 27.0291 7.52106C27.8521 8.56907 28.7017 9.74513 29.5886 11.059C30.6338 9.44583 31.6094 8.13929 32.5656 7.13785C32.577 7.126 32.5881 7.11446 32.5994 7.10265L29.5905 4.41211Z" fill="url(#paint6_linear_376_5422)"/>
<path d="M45.7408 3.90751C43.4207 1.56372 40.6547 0.188477 37.6976 0.188477C34.5792 0.188477 31.9563 1.89726 29.5905 4.40769C29.5793 4.41958 29.5678 4.43174 29.5566 4.44369L32.5657 7.1334C32.577 7.12155 32.5881 7.11001 32.5994 7.09823C34.1579 5.47712 35.6663 4.66772 37.3383 4.66772C39.1381 4.66772 40.8226 5.51488 42.2814 7.00002C42.2928 7.01166 42.3042 7.0232 42.3156 7.03491L45.7754 3.9424C45.764 3.93069 45.7522 3.91915 45.7408 3.90751Z" fill="#0082FB"/>
<path d="M52.4475 22.1672C52.3176 14.6418 49.6842 7.91411 45.7754 3.94114C45.7637 3.92943 45.7523 3.91789 45.7405 3.90625L42.2815 6.99876C42.2929 7.0104 42.3043 7.02194 42.3157 7.03365C45.2562 10.0543 47.2733 15.6727 47.4567 22.1656C47.4571 22.1819 47.4574 22.1983 47.4581 22.2146L52.4482 22.2162C52.4482 22.1999 52.4479 22.1836 52.4475 22.1672Z" fill="url(#paint7_linear_376_5422)"/>
<path d="M52.4481 22.2215C52.4481 22.2052 52.4478 22.1889 52.4474 22.1725L47.4567 22.1709C47.457 22.1872 47.4573 22.2036 47.458 22.2199C47.466 22.5247 47.4701 22.8313 47.4701 23.1397C47.4701 24.91 47.2059 26.341 46.668 27.3741C46.66 27.3895 46.6517 27.4048 46.6438 27.42L50.3647 31.29C50.374 31.2759 50.383 31.262 50.3923 31.2479C51.7431 29.1635 52.4523 26.2678 52.4523 22.7564C52.4523 22.5777 52.4509 22.3994 52.4481 22.2215Z" fill="url(#paint8_linear_376_5422)"/>
<path d="M46.6684 27.3662C46.6605 27.3815 46.6522 27.3969 46.6442 27.4121C46.1789 28.2829 45.5146 28.8638 44.6465 29.1177L46.3427 34.4638C46.5672 34.3875 46.7859 34.3019 46.9987 34.2069C47.0622 34.1786 47.1255 34.1495 47.188 34.1195C47.2239 34.1022 47.2598 34.0847 47.2954 34.067C48.4171 33.5079 49.365 32.6834 50.1316 31.621C50.1786 31.5562 50.2249 31.4907 50.2701 31.4241C50.3023 31.3772 50.334 31.3299 50.3651 31.282C50.3745 31.268 50.3834 31.254 50.3928 31.2399L46.6684 27.3662Z" fill="url(#paint9_linear_376_5422)"/>
<path d="M43.5656 29.2621C42.997 29.2621 42.495 29.1775 42.0038 28.958L40.2668 34.4313C41.2431 34.7647 42.2846 34.915 43.4461 34.915C44.5159 34.915 45.4981 34.755 46.3886 34.4463L44.6928 29.1021C44.3273 29.2116 43.9473 29.2656 43.5656 29.2621Z" fill="url(#paint10_linear_376_5422)"/>
<path d="M40.0903 27.3966C40.0796 27.3843 40.0689 27.3719 40.0578 27.3594L36.0613 31.5159C36.0727 31.5279 36.0837 31.5398 36.0948 31.5517C37.4835 33.0316 38.8097 33.9496 40.3135 34.4535L42.049 28.9842C41.4155 28.712 40.8023 28.2186 40.0903 27.3966Z" fill="url(#paint11_linear_376_5422)"/>
<path d="M40.0583 27.3547C38.8595 25.9607 37.3765 23.6395 35.044 19.8861L32.004 14.8163L31.9796 14.7754L28.4524 20.0652L28.4775 20.1074L30.6315 23.7309C32.7193 27.2248 34.4203 29.7524 36.0617 31.5112C36.0731 31.5232 36.0841 31.5352 36.0952 31.547L40.0904 27.392C40.0797 27.3797 40.069 27.3673 40.0583 27.3547Z" fill="url(#paint12_linear_376_5422)"/>
</g>
</g>
<defs>
<linearGradient id="paint0_linear_376_5422" x1="29.6603" y1="17.9594" x2="17.9522" y2="2.61778" gradientUnits="userSpaceOnUse">
<stop offset="0.0006" stop-color="#0867DF"/>
<stop offset="0.4539" stop-color="#0668E1"/>
<stop offset="0.8591" stop-color="#0064E0"/>
</linearGradient>
<linearGradient id="paint1_linear_376_5422" x1="6.86666" y1="8.02122" x2="14.8933" y2="1.92749" gradientUnits="userSpaceOnUse">
<stop offset="0.1323" stop-color="#0064DF"/>
<stop offset="0.9988" stop-color="#0064E0"/>
</linearGradient>
<linearGradient id="paint2_linear_376_5422" x1="3.46426" y1="16.9665" x2="6.68404" y2="8.86139" gradientUnits="userSpaceOnUse">
<stop offset="0.0147" stop-color="#0072EC"/>
<stop offset="0.6881" stop-color="#0064DF"/>
</linearGradient>
<linearGradient id="paint3_linear_376_5422" x1="3.02723" y1="22.8241" x2="3.39977" y2="17.874" gradientUnits="userSpaceOnUse">
<stop offset="0.0731" stop-color="#007CF6"/>
<stop offset="0.9943" stop-color="#0072EC"/>
</linearGradient>
<linearGradient id="paint4_linear_376_5422" x1="3.23211" y1="25.505" x2="2.96562" y2="23.5218" gradientUnits="userSpaceOnUse">
<stop offset="0.0731" stop-color="#007FF9"/>
<stop offset="1" stop-color="#007CF6"/>
</linearGradient>
<linearGradient id="paint5_linear_376_5422" x1="3.07568" y1="26.0323" x2="4.73645" y2="29.5548" gradientUnits="userSpaceOnUse">
<stop offset="0.0731" stop-color="#007FF9"/>
<stop offset="1" stop-color="#0082FB"/>
</linearGradient>
<linearGradient id="paint6_linear_376_5422" x1="28.6015" y1="8.98911" x2="30.7971" y2="5.95249" gradientUnits="userSpaceOnUse">
<stop offset="0.2799" stop-color="#007FF8"/>
<stop offset="0.9141" stop-color="#0082FB"/>
</linearGradient>
<linearGradient id="paint7_linear_376_5422" x1="45.2945" y1="5.04784" x2="49.8877" y2="21.9442" gradientUnits="userSpaceOnUse">
<stop stop-color="#0082FB"/>
<stop offset="0.9995" stop-color="#0081FA"/>
</linearGradient>
<linearGradient id="paint8_linear_376_5422" x1="50.9969" y1="22.5959" x2="48.0899" y2="28.4701" gradientUnits="userSpaceOnUse">
<stop offset="0.0619" stop-color="#0081FA"/>
<stop offset="1" stop-color="#0080F9"/>
</linearGradient>
<linearGradient id="paint9_linear_376_5422" x1="45.7799" y1="31.5765" x2="48.4973" y2="29.7257" gradientUnits="userSpaceOnUse">
<stop stop-color="#027AF3"/>
<stop offset="1" stop-color="#0080F9"/>
</linearGradient>
<linearGradient id="paint10_linear_376_5422" x1="41.5177" y1="31.9366" x2="45.2936" y2="31.9366" gradientUnits="userSpaceOnUse">
<stop stop-color="#0377EF"/>
<stop offset="0.9994" stop-color="#0279F1"/>
</linearGradient>
<linearGradient id="paint11_linear_376_5422" x1="38.2349" y1="29.8635" x2="40.9495" y2="31.4605" gradientUnits="userSpaceOnUse">
<stop offset="0.0019" stop-color="#0471E9"/>
<stop offset="1" stop-color="#0377EF"/>
</linearGradient>
<linearGradient id="paint12_linear_376_5422" x1="29.9546" y1="18.0825" x2="38.6505" y2="29.0159" gradientUnits="userSpaceOnUse">
<stop offset="0.2765" stop-color="#0867DF"/>
<stop offset="1" stop-color="#0471E9"/>
</linearGradient>
<clipPath id="clip0_376_5422">
<rect width="172.727" height="38" fill="white"/>
</clipPath>
</defs>
</svg>
