<svg width="154" height="36" viewBox="0 0 154 36" fill="none" xmlns="http://www.w3.org/2000/svg">
<g clip-path="url(#clip0_376_4810)">
<path d="M26.6291 6.96804V3.16054C26.6291 3.04441 26.5829 2.93303 26.5008 2.85092C26.4187 2.7688 26.3073 2.72267 26.1912 2.72267H1.29012C1.22748 2.72214 1.16545 2.73505 1.10823 2.76053C1.05101 2.78602 0.99992 2.82348 0.958416 2.8704C0.916912 2.91732 0.885957 2.9726 0.867643 3.0325C0.849329 3.09241 0.844081 3.15554 0.852254 3.21765V7.02516C0.852254 7.14128 0.898385 7.25266 0.980501 7.33477C1.06262 7.41689 1.17399 7.46302 1.29012 7.46302H11.1516V33.1256C11.1515 33.1848 11.1634 33.2433 11.1866 33.2977C11.2098 33.3521 11.2438 33.4013 11.2865 33.4422C11.3292 33.4831 11.3797 33.5149 11.435 33.5358C11.4904 33.5566 11.5494 33.5661 11.6085 33.5635H15.8919C16.008 33.5635 16.1194 33.5174 16.2015 33.4352C16.2836 33.3531 16.3298 33.2417 16.3298 33.1256V7.40591H26.1912C26.3073 7.40591 26.4187 7.35978 26.5008 7.27766C26.5829 7.19554 26.6291 7.08417 26.6291 6.96804Z" fill="#FF1499"/>
<path d="M39.0225 11.4232C38.1836 11.1662 37.3107 11.0378 36.4334 11.0425C35.2965 10.9521 34.1573 11.1848 33.1468 11.7136C32.1364 12.2424 31.2959 13.0458 30.7221 14.0314V11.823C30.7175 11.7636 30.7007 11.7058 30.673 11.6531C30.6452 11.6004 30.607 11.5539 30.5607 11.5165C30.5144 11.4791 30.4609 11.4515 30.4035 11.4355C30.3462 11.4194 30.2861 11.4153 30.2271 11.4232H26.2292C26.1131 11.4232 26.0017 11.4693 25.9196 11.5515C25.8375 11.6336 25.7914 11.7449 25.7914 11.8611V33.126C25.7914 33.2421 25.8375 33.3535 25.9196 33.4356C26.0017 33.5177 26.1131 33.5639 26.2292 33.5639H30.3223C30.3814 33.5664 30.4404 33.557 30.4957 33.5362C30.5511 33.5153 30.6016 33.4835 30.6443 33.4426C30.687 33.4016 30.721 33.3525 30.7442 33.2981C30.7673 33.2437 30.7793 33.1852 30.7792 33.126V21.3037C30.72 20.5819 30.8039 19.8555 31.026 19.1662C31.2482 18.4768 31.6042 17.8382 32.0738 17.2868C32.5116 16.8487 33.0352 16.5059 33.6118 16.2798C34.1884 16.0538 34.8055 15.9494 35.4244 15.9732C36.2447 15.9802 37.0594 16.1085 37.8421 16.3539C37.8995 16.3744 37.9606 16.3826 38.0213 16.3781C38.0821 16.3736 38.1412 16.3564 38.195 16.3278C38.2487 16.2991 38.2959 16.2595 38.3335 16.2116C38.3711 16.1636 38.3982 16.1084 38.4133 16.0493L39.3271 11.9943C39.3447 11.9368 39.3508 11.8764 39.345 11.8166C39.3392 11.7567 39.3216 11.6986 39.2933 11.6455C39.265 11.5925 39.2265 11.5455 39.1801 11.5074C39.1336 11.4692 39.08 11.4406 39.0225 11.4232Z" fill="#FF1499"/>
<path d="M87.1118 11.4225H75.0991V9.61392C75.0646 9.15747 75.1208 8.69869 75.2646 8.2641C75.4084 7.82951 75.6368 7.42771 75.9368 7.08193C76.2316 6.79815 76.5811 6.57749 76.9641 6.43346C77.3471 6.28944 77.7555 6.22506 78.1642 6.24428C79.0984 6.23906 80.0153 6.49632 80.8104 6.98674C80.8628 7.01722 80.9207 7.03697 80.9808 7.04485C81.0409 7.05272 81.1019 7.04857 81.1604 7.03262C81.2189 7.01668 81.2736 6.98926 81.3213 6.95197C81.3691 6.91468 81.409 6.86825 81.4386 6.8154L82.9997 3.80747C83.048 3.70319 83.0553 3.58453 83.02 3.47515C82.9847 3.36577 82.9095 3.2737 82.8093 3.21731C81.287 2.35874 79.5693 1.90637 77.8215 1.90372C75.8414 1.85611 73.9121 2.53308 72.3958 3.80747C71.6367 4.50279 71.044 5.36017 70.6617 6.31594C70.2794 7.27172 70.1173 8.30135 70.1875 9.32836V11.4225H66.2277C66.1115 11.4225 66.0002 11.4686 65.918 11.5507C65.8359 11.6328 65.7898 11.7442 65.7898 11.8603V15.4775C65.7898 15.5936 65.8359 15.705 65.918 15.7871C66.0002 15.8692 66.1115 15.9153 66.2277 15.9153H70.1875V33.1253C70.1874 33.1844 70.1993 33.243 70.2225 33.2974C70.2457 33.3518 70.2797 33.4009 70.3224 33.4418C70.3651 33.4827 70.4156 33.5146 70.4709 33.5354C70.5263 33.5563 70.5853 33.5657 70.6444 33.5631H74.7374C74.8399 33.5451 74.9326 33.491 74.9989 33.4108C75.0652 33.3306 75.1007 33.2293 75.0991 33.1253V15.8773H82.5047V33.1253C82.5047 33.2414 82.5509 33.3528 82.633 33.4349C82.7151 33.517 82.8265 33.5631 82.9426 33.5631H87.0357C87.0948 33.5657 87.1537 33.5563 87.2091 33.5354C87.2644 33.5146 87.315 33.4827 87.3577 33.4418C87.4004 33.4009 87.4343 33.3518 87.4575 33.2974C87.4807 33.243 87.4926 33.1844 87.4926 33.1253V11.8223C87.4846 11.7221 87.4425 11.6276 87.3731 11.5548C87.3038 11.482 87.2115 11.4353 87.1118 11.4225Z" fill="#FF1499"/>
<path d="M62.6672 11.4225H58.6693C58.5532 11.4225 58.4418 11.4686 58.3597 11.5507C58.2776 11.6328 58.2314 11.7442 58.2314 11.8603V13.9545C57.3623 12.8933 56.2526 12.0548 54.9944 11.5085C53.7363 10.9621 52.3659 10.7238 50.9972 10.8133C48.0319 10.7723 45.1637 11.8692 42.9824 13.8783C41.826 14.977 40.9223 16.3139 40.3339 17.7964C39.7455 19.2789 39.4864 20.8717 39.5747 22.4643C39.481 24.0187 39.7137 25.5756 40.258 27.0346C40.8023 28.4937 41.646 29.8227 42.7349 30.936C44.764 32.9329 47.5031 34.0422 50.3499 34.0201C53.2354 34.0668 56.0242 32.98 58.1172 30.9931V33.2205C58.1172 33.3366 58.1633 33.448 58.2455 33.5301C58.3276 33.6122 58.4389 33.6584 58.5551 33.6584H62.553C62.6691 33.6584 62.7805 33.6122 62.8626 33.5301C62.9447 33.448 62.9908 33.3366 62.9908 33.2205V11.8223C62.986 11.73 62.952 11.6417 62.8939 11.5698C62.8358 11.498 62.7564 11.4465 62.6672 11.4225ZM56.0612 27.6615C54.7595 28.9028 53.0241 29.586 51.2256 29.5653C50.3519 29.576 49.4847 29.4132 48.6742 29.0864C47.8638 28.7597 47.1263 28.2753 46.5043 27.6615C45.836 26.9488 45.322 26.1058 44.9945 25.1853C44.6669 24.2648 44.5328 23.2866 44.6006 22.312C44.5537 21.362 44.7018 20.4125 45.0357 19.522C45.3697 18.6314 45.8824 17.8186 46.5424 17.1338C47.8022 15.8993 49.5 15.2147 51.2637 15.23C53.048 15.2251 54.7657 15.9068 56.0612 17.1338C56.7587 17.8195 57.3014 18.6465 57.6527 19.5594C58.0041 20.4723 58.156 21.4498 58.0982 22.4262C58.1477 23.3932 57.9918 24.3598 57.6407 25.2622C57.2896 26.1645 56.7513 26.9823 56.0612 27.6615Z" fill="#FF1499"/>
<path d="M152.81 16.6204C152.706 16.4161 152.578 16.2244 152.43 16.0493L148.051 10.9472L140.265 1.9044C140.184 1.83083 140.079 1.79004 139.97 1.79004C139.86 1.79004 139.755 1.83083 139.674 1.9044L135.182 5.54058C135.109 5.61811 135.069 5.72015 135.069 5.82614C135.069 5.93213 135.109 6.03417 135.182 6.1117L145.348 18.0102L135.124 29.8896C135.051 29.9703 135.01 30.0755 135.01 30.1847C135.01 30.2939 135.051 30.3991 135.124 30.4798L139.617 34.154C139.68 34.172 139.746 34.172 139.808 34.154C139.88 34.1736 139.957 34.1714 140.028 34.1477C140.099 34.124 140.161 34.0798 140.208 34.0207L152.372 19.8949C152.755 19.4502 153 18.904 153.078 18.3227C153.155 17.7413 153.062 17.15 152.81 16.6204Z" fill="#FF1499"/>
<path d="M112.66 0.000414085H106.835C106.719 0.000414085 106.607 0.046546 106.525 0.128661C106.443 0.210777 106.397 0.322149 106.397 0.438277V35.5816C106.402 35.6944 106.45 35.8009 106.532 35.879C106.613 35.957 106.722 36.0005 106.835 36.0004H112.66C112.718 36.003 112.775 35.9941 112.829 35.9745C112.883 35.9548 112.933 35.9246 112.976 35.8857C113.018 35.8468 113.052 35.7999 113.077 35.7478C113.101 35.6956 113.115 35.6391 113.117 35.5816V0.438277C113.117 0.379139 113.105 0.320602 113.082 0.266197C113.059 0.211793 113.025 0.16265 112.982 0.121731C112.94 0.0808128 112.889 0.0489678 112.834 0.0281172C112.778 0.0072667 112.719 -0.00215719 112.66 0.000414085Z" fill="#FF1499"/>
<path d="M131.698 15.0402L129.109 8.11052L128.842 7.38709L126.5 1.16181C126.48 1.1016 126.445 1.04742 126.399 1.00419C126.352 0.960962 126.295 0.93007 126.234 0.914327C126.147 0.886631 126.054 0.886631 125.967 0.914327L123.531 1.90428L120.485 2.98942C120.402 3.0105 120.329 3.05717 120.275 3.12268C120.248 3.18241 120.234 3.24735 120.234 3.31306C120.234 3.37876 120.248 3.4437 120.275 3.50343L125.72 18.1052L120.218 32.5928C120.2 32.6453 120.193 32.7008 120.197 32.7561C120.2 32.8114 120.215 32.8654 120.24 32.915C120.265 32.9646 120.299 33.0088 120.341 33.0449C120.383 33.0811 120.432 33.1086 120.485 33.1258L121.398 33.4495L125.986 35.0867H126.158C126.231 35.0777 126.301 35.0503 126.361 35.0071C126.421 34.9638 126.469 34.906 126.5 34.8392L127.909 31.0317L129.223 27.4907L132.421 19.0381C132.514 18.7871 132.572 18.5244 132.592 18.2575V18.01C132.594 17.6539 132.536 17.2999 132.421 16.963L131.698 15.0402Z" fill="#FF1499"/>
</g>
<defs>
<clipPath id="clip0_376_4810">
<rect width="152.3" height="36" fill="white" transform="translate(0.852295)"/>
</clipPath>
</defs>
</svg>
