<svg width="169" height="42" viewBox="0 0 169 42" fill="none" xmlns="http://www.w3.org/2000/svg">
<g clip-path="url(#clip0_376_4823)">
<path d="M70.597 21.0019C70.597 21.7866 70.5158 22.539 70.3532 23.259C70.1907 23.9709 69.9551 24.6383 69.6463 25.2612C69.3455 25.8842 68.9758 26.4586 68.5369 26.9844C68.0981 27.5021 67.5984 27.9592 67.0376 28.3556L71.5112 33.2096H68.8051C68.4151 33.2096 68.0616 33.157 67.7447 33.0518C67.4359 32.9467 67.1515 32.7526 66.8914 32.4694L64.3072 29.6298C63.8928 29.7431 63.4662 29.828 63.0274 29.8846C62.5967 29.9413 62.1457 29.9695 61.6743 29.9695C60.3416 29.9695 59.1226 29.7472 58.0175 29.3022C56.9205 28.8491 55.9778 28.2221 55.1895 27.4212C54.4094 26.6204 53.8041 25.6738 53.3734 24.5817C52.9426 23.4815 52.7273 22.2882 52.7273 21.0019C52.7273 19.7156 52.9426 18.5263 53.3734 17.4342C53.8041 16.3339 54.4094 15.3834 55.1895 14.5825C55.9778 13.7816 56.9205 13.1586 58.0175 12.7137C59.1226 12.2607 60.3416 12.0342 61.6743 12.0342C63.007 12.0342 64.222 12.2607 65.319 12.7137C66.416 13.1668 67.3546 13.7938 68.1347 14.5946C68.9148 15.3875 69.5203 16.3339 69.951 17.4342C70.3817 18.5263 70.597 19.7156 70.597 21.0019ZM67.2327 21.0019C67.2327 20.0392 67.1027 19.1775 66.8427 18.4171C66.5908 17.6486 66.225 16.9973 65.7456 16.4634C65.2662 15.9295 64.681 15.5209 63.9903 15.2378C63.3077 14.9546 62.5358 14.8131 61.6743 14.8131C60.8129 14.8131 60.0369 14.9546 59.3462 15.2378C58.6554 15.5209 58.0662 15.9295 57.5787 16.4634C57.0993 16.9973 56.7295 17.6486 56.4695 18.4171C56.2094 19.1775 56.0794 20.0392 56.0794 21.0019C56.0794 21.9646 56.2094 22.8302 56.4695 23.5988C56.7295 24.3592 57.0993 25.0064 57.5787 25.5403C58.0662 26.0662 58.6554 26.4706 59.3462 26.7538C60.0369 27.037 60.8129 27.1785 61.6743 27.1785C62.5358 27.1785 63.3077 27.037 63.9903 26.7538C64.681 26.4706 65.2662 26.0662 65.7456 25.5403C66.225 25.0064 66.5908 24.3592 66.8427 23.5988C67.1027 22.8302 67.2327 21.9646 67.2327 21.0019Z" fill="white"/>
<path d="M74.7975 17.3252V25.2372C74.7975 25.9976 74.9722 26.5882 75.3217 27.0088C75.6792 27.4214 76.2115 27.6277 76.9185 27.6277C77.4386 27.6277 77.9262 27.5145 78.3813 27.2879C78.8363 27.0533 79.2669 26.7337 79.6733 26.3293V17.3252H82.6841V29.7756H80.8435C80.4534 29.7756 80.1974 29.5936 80.0755 29.2295L79.8684 28.2345C79.6083 28.4933 79.3401 28.732 79.0639 28.9504C78.7875 29.1608 78.4909 29.3428 78.174 29.4965C77.8652 29.6421 77.5279 29.7554 77.1623 29.8363C76.8047 29.9253 76.4187 29.9697 76.0043 29.9697C75.3217 29.9697 74.7162 29.8565 74.1881 29.6299C73.668 29.3954 73.2291 29.0678 72.8716 28.647C72.5141 28.2264 72.2418 27.7288 72.0549 27.1545C71.8761 26.572 71.7867 25.9329 71.7867 25.2372V17.3252H74.7975Z" fill="white"/>
<path d="M88.1294 17.325V29.7754H85.1186V17.325H88.1294ZM88.5803 13.6966C88.5803 13.9555 88.5275 14.1982 88.4219 14.4247C88.3163 14.6513 88.174 14.8494 87.9953 15.0193C87.8245 15.1892 87.6215 15.3267 87.3858 15.4319C87.1501 15.529 86.8982 15.5776 86.6301 15.5776C86.37 15.5776 86.1222 15.529 85.8865 15.4319C85.6589 15.3267 85.4598 15.1892 85.2892 15.0193C85.1186 14.8494 84.9804 14.6513 84.8748 14.4247C84.7772 14.1982 84.7285 13.9555 84.7285 13.6966C84.7285 13.4297 84.7772 13.1788 84.8748 12.9443C84.9804 12.7096 85.1186 12.5074 85.2892 12.3375C85.4598 12.1676 85.6589 12.0341 85.8865 11.937C86.1222 11.8319 86.37 11.7793 86.6301 11.7793C86.8982 11.7793 87.1501 11.8319 87.3858 11.937C87.6215 12.0341 87.8245 12.1676 87.9953 12.3375C88.174 12.5074 88.3163 12.7096 88.4219 12.9443C88.5275 13.1788 88.5803 13.4297 88.5803 13.6966Z" fill="white"/>
<path d="M99.3555 19.9583C99.2661 20.0715 99.1767 20.1605 99.0873 20.2252C99.006 20.2899 98.8841 20.3223 98.7216 20.3223C98.5672 20.3223 98.4169 20.2778 98.2706 20.1888C98.1244 20.0918 97.9496 19.9865 97.7465 19.8734C97.5433 19.752 97.2995 19.6468 97.0151 19.5578C96.7388 19.4607 96.3934 19.4122 95.979 19.4122C95.4507 19.4122 94.9876 19.5092 94.5894 19.7035C94.1912 19.8895 93.858 20.1605 93.5898 20.5165C93.3299 20.8724 93.1348 21.3052 93.0048 21.8149C92.8748 22.3165 92.8098 22.8869 92.8098 23.5259C92.8098 24.1893 92.8788 24.7799 93.0169 25.2977C93.1632 25.8154 93.3705 26.2522 93.6387 26.6082C93.9068 26.956 94.2318 27.223 94.6138 27.4091C94.9957 27.5871 95.4264 27.676 95.9058 27.676C96.3853 27.676 96.7713 27.6194 97.0639 27.5061C97.3645 27.3848 97.6165 27.2554 97.8196 27.1178C98.0227 26.9722 98.1974 26.8428 98.3437 26.7295C98.4982 26.6082 98.6688 26.5475 98.8557 26.5475C99.0995 26.5475 99.2823 26.6405 99.4042 26.8267L100.27 27.9188C99.9365 28.3071 99.5748 28.6348 99.1849 28.9017C98.7948 29.1606 98.3884 29.3709 97.9659 29.5327C97.5514 29.6864 97.1208 29.7956 96.6738 29.8603C96.2268 29.9251 95.7839 29.9575 95.3451 29.9575C94.5732 29.9575 93.8458 29.8158 93.1632 29.5327C92.4806 29.2415 91.8834 28.8208 91.3714 28.2706C90.8676 27.7205 90.4653 27.0491 90.1646 26.2563C89.8721 25.4554 89.7258 24.5452 89.7258 23.5259C89.7258 22.6118 89.8558 21.7664 90.1159 20.9897C90.3841 20.2049 90.7742 19.5295 91.286 18.9632C91.798 18.3888 92.4319 17.9398 93.1876 17.6162C93.9434 17.2927 94.8129 17.1309 95.7962 17.1309C96.7307 17.1309 97.5474 17.2805 98.2463 17.5798C98.9532 17.8791 99.5871 18.3079 100.148 18.8661L99.3555 19.9583Z" fill="white"/>
<path d="M104.257 11.7432V22.07H104.818C105.021 22.07 105.18 22.0417 105.293 21.9851C105.407 21.9284 105.529 21.8233 105.659 21.6695L108.767 17.847C108.905 17.6852 109.051 17.5598 109.206 17.4709C109.36 17.3738 109.564 17.3253 109.816 17.3253H112.57L108.682 21.9486C108.544 22.1185 108.401 22.2763 108.256 22.4219C108.109 22.5594 107.951 22.6808 107.78 22.7859C107.951 22.9073 108.101 23.0489 108.231 23.2106C108.361 23.3724 108.491 23.5464 108.621 23.7325L112.789 29.7756H110.072C109.836 29.7756 109.636 29.7352 109.475 29.6543C109.312 29.5734 109.166 29.4359 109.036 29.2417L105.854 24.5212C105.732 24.3352 105.611 24.2138 105.489 24.1572C105.366 24.1006 105.184 24.0723 104.94 24.0723H104.257V29.7756H101.246V11.7432H104.257Z" fill="white"/>
<path d="M115.575 12.2285C115.721 12.2285 115.844 12.2366 115.94 12.2528C116.038 12.2609 116.124 12.2851 116.197 12.3256C116.279 12.358 116.355 12.4106 116.429 12.4834C116.501 12.548 116.583 12.6371 116.672 12.7504L125.924 24.4847C125.891 24.2017 125.867 23.9266 125.851 23.6597C125.843 23.3846 125.839 23.1297 125.839 22.8952V12.2285H128.727V29.7756H127.034C126.773 29.7756 126.558 29.7352 126.387 29.6542C126.217 29.5734 126.05 29.4277 125.887 29.2174L116.672 17.5314C116.696 17.7904 116.713 18.0492 116.721 18.3081C116.737 18.5589 116.746 18.7894 116.746 18.9998V29.7756H113.856V12.2285H115.575Z" fill="white"/>
<path d="M136.476 17.1309C137.411 17.1309 138.256 17.2805 139.012 17.5798C139.775 17.8791 140.426 18.3038 140.962 18.854C141.498 19.4041 141.913 20.0756 142.206 20.8683C142.498 21.6612 142.644 22.5471 142.644 23.5259C142.644 24.5129 142.498 25.4028 142.206 26.1956C141.913 26.9884 141.498 27.6639 140.962 28.2221C140.426 28.7803 139.775 29.2091 139.012 29.5085C138.256 29.8077 137.411 29.9575 136.476 29.9575C135.542 29.9575 134.693 29.8077 133.929 29.5085C133.166 29.2091 132.51 28.7803 131.967 28.2221C131.43 27.6639 131.012 26.9884 130.711 26.1956C130.419 25.4028 130.272 24.5129 130.272 23.5259C130.272 22.5471 130.419 21.6612 130.711 20.8683C131.012 20.0756 131.43 19.4041 131.967 18.854C132.51 18.3038 133.166 17.8791 133.929 17.5798C134.693 17.2805 135.542 17.1309 136.476 17.1309ZM136.476 27.6518C137.517 27.6518 138.284 27.3039 138.78 26.6082C139.284 25.9124 139.536 24.8931 139.536 23.5501C139.536 22.2073 139.284 21.1839 138.78 20.48C138.284 19.7762 137.517 19.4243 136.476 19.4243C135.42 19.4243 134.64 19.7802 134.136 20.4922C133.633 21.196 133.381 22.2154 133.381 23.5501C133.381 24.885 133.633 25.9043 134.136 26.6082C134.64 27.3039 135.42 27.6518 136.476 27.6518Z" fill="white"/>
<path d="M152.82 29.7756C152.429 29.7756 152.173 29.5937 152.051 29.2295L151.807 28.0282C151.547 28.3195 151.275 28.5824 150.991 28.817C150.706 29.0516 150.397 29.2539 150.064 29.4238C149.739 29.5937 149.386 29.723 149.004 29.8121C148.63 29.9091 148.224 29.9577 147.785 29.9577C147.102 29.9577 146.477 29.8161 145.907 29.533C145.339 29.2498 144.847 28.8413 144.433 28.3073C144.027 27.7653 143.71 27.0979 143.482 26.3051C143.263 25.5122 143.153 24.6062 143.153 23.5868C143.153 22.6646 143.279 21.8071 143.531 21.0142C143.783 20.2215 144.145 19.5338 144.616 18.9513C145.087 18.3689 145.652 17.9158 146.31 17.5922C146.968 17.2605 147.708 17.0947 148.528 17.0947C149.228 17.0947 149.825 17.208 150.321 17.4345C150.816 17.6529 151.259 17.9481 151.649 18.3203V11.7432H154.66V29.7756H152.82ZM148.809 27.5793C149.434 27.5793 149.967 27.4498 150.406 27.191C150.845 26.932 151.259 26.5639 151.649 26.0867V20.5046C151.308 20.092 150.934 19.8008 150.527 19.6309C150.13 19.461 149.699 19.376 149.236 19.376C148.78 19.376 148.367 19.461 147.993 19.6309C147.626 19.8008 147.313 20.0597 147.054 20.4076C146.802 20.7473 146.607 21.1841 146.468 21.7181C146.331 22.2439 146.261 22.8669 146.261 23.5868C146.261 24.3149 146.318 24.9338 146.432 25.4435C146.554 25.945 146.724 26.3577 146.944 26.6813C147.163 26.9967 147.431 27.2273 147.748 27.3729C148.065 27.5105 148.419 27.5793 148.809 27.5793Z" fill="white"/>
<path d="M162.115 17.1309C162.904 17.1309 163.626 17.2562 164.285 17.507C164.951 17.7578 165.525 18.1258 166.003 18.6113C166.483 19.0886 166.857 19.6791 167.125 20.383C167.394 21.0788 167.527 21.8756 167.527 22.7736C167.527 23 167.515 23.1902 167.491 23.3439C167.474 23.4896 167.438 23.6068 167.381 23.6958C167.333 23.7767 167.263 23.8374 167.174 23.8778C167.085 23.9102 166.97 23.9264 166.833 23.9264H159.105C159.194 25.2046 159.54 26.143 160.14 26.7417C160.742 27.3403 161.538 27.6397 162.53 27.6397C163.017 27.6397 163.436 27.583 163.785 27.4698C164.143 27.3565 164.451 27.2311 164.712 27.0936C164.98 26.956 165.212 26.8307 165.406 26.7174C165.61 26.6042 165.805 26.5475 165.992 26.5475C166.114 26.5475 166.219 26.5718 166.308 26.6203C166.398 26.6689 166.475 26.7376 166.54 26.8267L167.418 27.9188C167.085 28.3071 166.711 28.6348 166.296 28.9017C165.882 29.1606 165.447 29.3709 164.992 29.5327C164.545 29.6864 164.086 29.7956 163.615 29.8603C163.152 29.9251 162.7 29.9575 162.261 29.9575C161.392 29.9575 160.583 29.8158 159.836 29.5327C159.088 29.2415 158.438 28.8167 157.886 28.2586C157.332 27.6923 156.898 26.9966 156.581 26.1714C156.265 25.3381 156.106 24.3753 156.106 23.2832C156.106 22.4338 156.244 21.6369 156.52 20.8926C156.797 20.1403 157.191 19.4891 157.703 18.939C158.223 18.3807 158.853 17.9398 159.592 17.6162C160.34 17.2927 161.181 17.1309 162.115 17.1309ZM162.176 19.2787C161.298 19.2787 160.612 19.5255 160.116 20.0189C159.62 20.5124 159.303 21.2122 159.166 22.1183H164.821C164.821 21.73 164.769 21.3659 164.663 21.0262C164.558 20.6783 164.395 20.3748 164.175 20.116C163.956 19.8571 163.68 19.6549 163.346 19.5092C163.013 19.3556 162.623 19.2787 162.176 19.2787Z" fill="white"/>
<mask id="mask0_376_4823" style="mask-type:luminance" maskUnits="userSpaceOnUse" x="0" y="0" width="43" height="42">
<path d="M42.2273 0H0.227295V42H42.2273V0Z" fill="white"/>
</mask>
<g mask="url(#mask0_376_4823)">
<path fill-rule="evenodd" clip-rule="evenodd" d="M21.2273 34.125C24.7927 34.125 28.0259 32.7033 30.3914 30.3961C30.4562 30.3327 30.56 30.3327 30.6241 30.3968L36.0766 35.8492L41.7359 41.5085C41.8583 41.6309 41.7322 41.835 41.568 41.7802L32.5363 38.7696C32.4896 38.7541 32.4382 38.7604 32.3966 38.7866C29.1614 40.8223 25.3318 42 21.2273 42C9.62931 42 0.227295 32.598 0.227295 21C0.227295 9.40201 9.62931 0 21.2273 0C32.8253 0 42.2273 9.40201 42.2273 21C42.2273 25.9537 40.5121 30.5067 37.6432 34.0977C37.5825 34.1737 37.4693 34.1795 37.4005 34.1107L26.3124 23.0226C26.19 22.9002 26.3161 22.6962 26.4803 22.751L33.5265 25.0998C33.6125 25.1283 33.7055 25.0819 33.733 24.9956C34.1353 23.7358 34.3523 22.3933 34.3523 21C34.3523 13.7512 28.4761 7.875 21.2273 7.875C13.9785 7.875 8.10229 13.7512 8.10229 21C8.10229 28.2487 13.9785 34.125 21.2273 34.125Z" fill="#00A4D6"/>
</g>
</g>
<defs>
<clipPath id="clip0_376_4823">
<rect width="168" height="42" fill="white" transform="translate(0.227295)"/>
</clipPath>
</defs>
</svg>
