<svg width="194" height="30" viewBox="0 0 194 30" fill="none" xmlns="http://www.w3.org/2000/svg">
<g clip-path="url(#clip0_376_4820)">
<path fill-rule="evenodd" clip-rule="evenodd" d="M0.727295 0.995937H5.50105V29.0122H0.727295V0.995937ZM39.4042 18.9134L20.0111 0.564063V29.0116H24.6011V10.7853L43.9942 29.4447V0.995937H39.4042V18.9134ZM68.9073 13.4066L64.3642 11.7634C62.0229 10.9434 60.6911 10.1209 60.6911 8.06843C60.6911 5.78719 62.8036 4.69156 65.6486 4.69156C68.9529 4.69156 71.5242 5.92344 73.8642 7.70343V2.82031C71.6161 1.36094 68.7242 0.539062 65.5567 0.539062C60.3698 0.539062 56.0554 3.23094 56.0554 8.15906C56.0554 12.7672 58.9011 14.7753 62.6648 16.1441L66.7498 17.6047C69.2742 18.5628 70.6973 19.4303 70.6973 21.6197C70.6973 24.1291 68.448 25.2703 65.2348 25.2703C61.9311 25.2703 58.8548 24.0847 56.2842 22.0303V27.0041C58.2586 28.3734 61.4711 29.4684 65.2348 29.4684C70.9736 29.4684 75.333 26.6384 75.333 21.5284C75.333 17.4678 73.3142 15.0034 68.9073 13.4066ZM86.0873 0.995937H90.8605V29.0122H86.0873V0.995937ZM116.418 0.996562H105.608V29.0122H116.418C124.726 29.0122 130.097 23.5366 130.097 15.0034C130.097 6.47156 124.725 0.996562 116.418 0.996562ZM116.234 24.7697H110.382V5.19406H116.234C122.154 5.19406 125.322 8.98093 125.322 15.0034C125.322 20.9803 122.154 24.7697 116.234 24.7697ZM140.93 29.0122H158.027V24.7697H145.612V16.0872H156.741V11.9347H145.612V5.19344H158.027V0.995937H140.93V29.0122ZM182.801 17.4678C187.254 16.7834 189.353 14.0909 189.353 9.39093C189.353 3.91594 185.59 0.995937 179.76 0.995937H169.536V29.0122H174.309V17.6503H177.706L187.517 29.0122H192.934L182.801 17.4678ZM174.31 13.6803V5.10219H179.668C182.835 5.10219 184.626 6.79031 184.626 9.39093C184.626 11.9922 182.835 13.6803 179.668 13.6803H174.31Z" fill="white"/>
</g>
<defs>
<clipPath id="clip0_376_4820">
<rect width="192.5" height="30" fill="white" transform="translate(0.727295)"/>
</clipPath>
</defs>
</svg>
