<svg width="879" height="36" viewBox="0 0 879 36" fill="none" xmlns="http://www.w3.org/2000/svg">
<g clip-path="url(#clip0_1494_1436)">
<path d="M702.037 17.6622V26.5526H699.22V4.60675H706.693C708.495 4.57175 710.228 5.25428 711.54 6.51432C712.853 7.68687 713.588 9.38443 713.553 11.1345C713.588 12.902 712.853 14.5996 711.54 15.7896C710.228 17.0322 708.618 17.6622 706.71 17.6622H702.037ZM702.037 7.30186V14.9671H706.763C707.813 15.0021 708.828 14.5822 709.545 13.8295C711.033 12.3945 711.05 10.032 709.615 8.5444L709.545 8.4744C708.828 7.70437 707.813 7.28436 706.763 7.31936L702.037 7.30186ZM720.046 11.047C722.128 11.047 723.773 11.607 724.981 12.7095C726.188 13.8295 726.783 15.3521 726.783 17.2947V26.5351H724.088V24.4525H723.966C722.793 26.1676 721.253 27.0251 719.311 27.0251C717.665 27.0251 716.265 26.5351 715.163 25.555C714.078 24.645 713.465 23.2975 713.5 21.8799C713.5 20.3223 714.095 19.0973 715.268 18.1698C716.44 17.2423 718.015 16.7872 719.975 16.7872C721.656 16.7872 723.021 17.1022 724.106 17.6972V17.0498C724.106 16.0872 723.686 15.1771 722.951 14.5647C722.198 13.8996 721.236 13.5321 720.238 13.5321C718.663 13.5321 717.42 14.1972 716.493 15.5272L714.008 13.9696C715.355 12.027 717.368 11.047 720.046 11.047ZM716.405 21.9499C716.405 22.6849 716.755 23.3674 717.333 23.7874C717.963 24.2775 718.733 24.54 719.521 24.5225C720.711 24.5225 721.848 24.05 722.688 23.2099C723.616 22.3349 724.088 21.3023 724.088 20.1123C723.213 19.4123 721.988 19.0623 720.413 19.0623C719.276 19.0623 718.313 19.3423 717.543 19.8848C716.79 20.4449 716.405 21.1273 716.405 21.9499ZM742.254 11.537L732.839 33.1678H729.933L733.434 25.6076L727.238 11.5545H730.301L734.764 22.3349H734.834L739.191 11.5545L742.254 11.537Z" fill="white"/>
<path d="M690.645 15.7367C690.645 14.8792 690.575 14.0216 690.435 13.1816H678.552V18.0293H685.359C685.079 19.5868 684.169 20.9869 682.839 21.8619V25.012H686.9C689.28 22.8245 690.645 19.5868 690.645 15.7367Z" fill="#4285F4"/>
<path d="M678.552 28.0564C681.947 28.0564 684.817 26.9364 686.9 25.0113L682.839 21.8612C681.702 22.6313 680.249 23.0688 678.552 23.0688C675.262 23.0688 672.479 20.8462 671.481 17.8711H667.299V21.1262C669.434 25.3614 673.792 28.0564 678.552 28.0564Z" fill="#34A853"/>
<path d="M671.481 17.8725C670.956 16.3149 670.956 14.6173 671.481 13.0423V9.80469H667.299C666.41 11.5564 665.947 13.4931 665.947 15.4574C665.947 17.4217 666.41 19.3583 667.299 21.1101L671.481 17.8725Z" fill="#FBBC04"/>
<path d="M678.552 7.84392C680.354 7.80891 682.087 8.49143 683.382 9.73398L686.97 6.14635C684.694 3.99377 681.684 2.82123 678.552 2.85623C673.792 2.85623 669.434 5.55133 667.299 9.80399L671.481 13.0591C672.479 10.0665 675.262 7.84392 678.552 7.84392Z" fill="#EA4335"/>
</g>
<g clip-path="url(#clip1_1494_1436)">
<path fill-rule="evenodd" clip-rule="evenodd" d="M261.005 5.22855H225.841C225.123 5.22855 224.435 5.51307 223.927 6.01971C223.42 6.52635 223.134 7.21374 223.132 7.93108V28.2319C223.132 28.9502 223.417 29.6393 223.925 30.1473C224.433 30.6553 225.122 30.9407 225.841 30.9407H261.005C261.363 30.9433 261.717 30.875 262.048 30.74C262.379 30.605 262.68 30.4059 262.933 30.1541C263.187 29.9023 263.388 29.6027 263.525 29.2729C263.663 28.943 263.733 28.5892 263.733 28.2319V7.93108C263.732 7.57451 263.66 7.22176 263.522 6.89297C263.384 6.56418 263.182 6.26579 262.929 6.01483C262.676 5.76388 262.376 5.56528 262.045 5.43036C261.715 5.29545 261.362 5.22687 261.005 5.22855Z" fill="#227FBB"/>
<path fill-rule="evenodd" clip-rule="evenodd" d="M226.792 14.4654L226.012 12.5622L225.232 14.4654H226.792ZM244.004 13.7105C243.828 13.7931 243.632 13.826 243.439 13.8056H242.05V12.7462H243.433C243.617 12.7299 243.802 12.7604 243.972 12.835C244.05 12.872 244.115 12.932 244.158 13.0068C244.201 13.0816 244.22 13.1677 244.213 13.2537C244.219 13.3439 244.2 13.434 244.158 13.5145C244.117 13.5949 244.055 13.6626 243.978 13.7105H244.004ZM253.894 14.4654L253.107 12.5622L252.314 14.4654H253.894ZM235.458 16.5272H234.285V12.7843L232.648 16.5272H231.626L229.964 12.7843V16.5272H227.642L227.205 15.4614H224.826L224.401 16.5272H223.132L225.187 11.7375H226.887L228.841 16.2734V11.7375H230.7L232.197 14.9792L233.555 11.7375H235.458V16.5146V16.5272ZM240.121 16.5272H236.315V11.7375H240.121V12.7335H237.45V13.6407H240.058V14.6176H237.45V15.5439H240.121V16.5336V16.5272ZM245.494 13.038C245.501 13.3046 245.428 13.5672 245.286 13.7928C245.144 14.0184 244.938 14.1972 244.695 14.3068C244.915 14.388 245.11 14.5259 245.26 14.7065C245.416 14.97 245.481 15.2779 245.444 15.582V16.5208H244.295V15.9246C244.344 15.6025 244.281 15.2736 244.118 14.992C243.877 14.8192 243.58 14.7464 243.287 14.7889H242.05V16.5272H240.895V11.7375H243.515C243.988 11.6922 244.465 11.7709 244.898 11.9659C245.086 12.0686 245.24 12.2231 245.342 12.4109C245.444 12.5987 245.491 12.812 245.475 13.0253L245.494 13.038ZM247.321 16.5272H246.161V11.7375H247.321V16.5146V16.5272ZM260.834 16.5272H259.216L257.053 12.9428V16.5272H254.731L254.287 15.4614H251.914L251.483 16.5272H250.144C249.548 16.5651 248.959 16.3771 248.495 16.0007C248.268 15.7568 248.095 15.4685 247.986 15.1539C247.876 14.8394 247.834 14.5054 247.861 14.1736C247.837 13.8361 247.881 13.4972 247.99 13.1769C248.098 12.8566 248.27 12.5613 248.495 12.3085C248.732 12.1015 249.007 11.9442 249.306 11.8461C249.605 11.748 249.92 11.7111 250.233 11.7375H251.337V12.7589H250.252C250.094 12.7402 249.934 12.756 249.783 12.8053C249.632 12.8546 249.493 12.9362 249.377 13.0444C249.136 13.3527 249.019 13.7392 249.047 14.1292C249.012 14.5276 249.125 14.925 249.364 15.2457C249.474 15.337 249.6 15.4058 249.736 15.4483C249.872 15.4908 250.015 15.506 250.157 15.4931H250.671L252.276 11.7375H253.989L255.892 16.2544V11.7375H257.63L259.635 15.0681V11.7375H260.802V16.5146L260.834 16.5272ZM223.132 17.4471H225.079L225.524 16.3876H226.507L226.938 17.4471H230.776V16.6541L231.125 17.4471H233.117L233.46 16.6224V17.4471H242.976V15.7215H243.16C243.287 15.7215 243.325 15.7215 243.325 15.9563V17.4471H248.254V17.0411C248.823 17.3236 249.452 17.463 250.087 17.4471H252.162L252.606 16.3876H253.583L254.046 17.4471H258.024V16.4575L258.658 17.4471H261.83V10.8049H258.658V11.5916L258.214 10.8049H254.985V11.5916L254.573 10.8049H250.183C249.526 10.7749 248.872 10.9079 248.279 11.1919V10.8049H245.241V11.1919C244.878 10.9149 244.427 10.7776 243.972 10.8049H232.87L232.128 12.5241L231.379 10.8049H227.877V11.5916L227.49 10.8049H224.515L223.132 13.9706V17.4471ZM263.733 20.9617H261.653C261.493 20.9452 261.332 20.976 261.189 21.0504C261.133 21.0872 261.088 21.1385 261.059 21.1988C261.03 21.2591 261.018 21.3263 261.024 21.393C261.022 21.471 261.045 21.5477 261.089 21.6118C261.134 21.6758 261.198 21.7237 261.272 21.7483C261.415 21.7935 261.566 21.8129 261.716 21.8054H262.35C262.807 21.7702 263.26 21.9084 263.619 22.1924C263.662 22.2261 263.698 22.2669 263.727 22.3129L263.733 20.9617ZM263.733 24.1336C263.547 24.3584 263.309 24.5339 263.039 24.6444C262.769 24.7551 262.476 24.7975 262.185 24.768H259.978V23.7213H262.173C262.337 23.7431 262.503 23.6999 262.636 23.6007C262.68 23.5616 262.715 23.5137 262.739 23.4602C262.763 23.4066 262.775 23.3485 262.775 23.2899C262.777 23.23 262.765 23.1705 262.741 23.1157C262.717 23.0608 262.681 23.012 262.636 22.9727C262.517 22.8917 262.373 22.8536 262.23 22.8648C261.158 22.8332 259.819 22.9029 259.819 21.3867C259.819 20.6952 260.263 19.9656 261.462 19.9656H263.733V19.014H261.621C261.115 18.9878 260.614 19.1257 260.193 19.4074V19.014H257.066C256.58 18.989 256.1 19.1274 255.702 19.4074V19.014H250.125V19.4074C249.657 19.1373 249.124 19.0012 248.584 19.014H244.904V19.4074C244.425 19.1035 243.859 18.9653 243.293 19.014H239.176L238.237 20.0355L237.349 19.014H231.195V25.6942H237.235L238.205 24.6602L239.119 25.6942H242.843V24.1146H243.211C243.75 24.1499 244.291 24.0699 244.797 23.8799V25.6942H247.873V23.9433H248.026C248.21 23.9433 248.229 23.9433 248.229 24.14V25.6942H257.554C258.104 25.7152 258.646 25.5668 259.109 25.2693V25.6942H262.065C262.637 25.7077 263.206 25.5996 263.733 25.3771V24.1083V24.1336ZM259.178 22.2304C259.302 22.3657 259.396 22.5252 259.455 22.6989C259.514 22.8725 259.537 23.0565 259.521 23.2391C259.521 24.2668 258.887 24.749 257.726 24.749H255.486V23.7213H257.7C257.866 23.7391 258.033 23.6963 258.17 23.6007C258.211 23.5604 258.245 23.512 258.268 23.4587C258.29 23.4054 258.302 23.348 258.303 23.2899C258.303 23.2302 258.291 23.1711 258.267 23.1165C258.243 23.0617 258.208 23.0128 258.163 22.9727C258.044 22.8917 257.901 22.8536 257.757 22.8648C256.685 22.8332 255.353 22.9029 255.353 21.3867C255.353 20.6952 255.784 19.9656 256.983 19.9656H259.293V20.9807H257.199C257.041 20.9632 256.882 20.9941 256.742 21.0695C256.685 21.1049 256.638 21.1557 256.608 21.2162C256.577 21.2768 256.565 21.3447 256.571 21.412C256.567 21.4903 256.59 21.5675 256.634 21.6318C256.679 21.696 256.744 21.7437 256.818 21.7674C256.962 21.8126 257.112 21.8319 257.262 21.8245H257.897C258.353 21.793 258.805 21.9308 259.166 22.2114L259.178 22.2304ZM248.882 21.9323C248.707 22.0177 248.511 22.0529 248.317 22.0338H246.928V20.9553H248.336C248.522 20.9373 248.71 20.9656 248.882 21.0378C248.957 21.081 249.019 21.1442 249.06 21.2203C249.102 21.2964 249.121 21.3826 249.117 21.4691C249.121 21.5592 249.102 21.6488 249.061 21.7289C249.019 21.8091 248.958 21.8771 248.882 21.9259V21.9323ZM249.567 22.5287C249.789 22.607 249.984 22.7453 250.132 22.9283C250.285 23.1882 250.35 23.4911 250.316 23.791V24.7426H249.174V24.1464C249.22 23.8216 249.155 23.4906 248.99 23.2074C248.749 23.0314 248.448 22.9563 248.153 22.9981H246.928V24.7426H245.78V19.9846H248.419C248.888 19.9435 249.359 20.0221 249.789 20.213C249.982 20.3082 250.143 20.457 250.254 20.6415C250.364 20.8261 250.419 21.0386 250.411 21.2535C250.419 21.5222 250.346 21.7872 250.201 22.0136C250.057 22.2401 249.847 22.4174 249.599 22.5223L249.567 22.5287ZM251.045 19.9846H254.852V20.9743H252.149V21.8245H254.757V22.7951H252.149V23.7467H254.852V24.7426H251.045V19.9846ZM243.312 22.1733H241.834V20.9553H243.325C243.737 20.9553 244.023 21.1203 244.023 21.539C244.023 21.9577 243.75 22.1733 243.312 22.1733ZM240.698 24.3113L238.947 22.3636L240.698 20.4604V24.2668V24.3113ZM236.175 23.7467H233.365V22.7951H235.871V21.8245H233.365V20.9553H236.226L237.495 22.3446L236.194 23.7467H236.175ZM245.247 21.539C245.247 22.8649 244.257 23.144 243.261 23.144H241.834V24.7426H239.626L238.211 23.1567L236.752 24.7364H232.229V19.9846H236.822L238.224 21.5516L239.677 19.9846H243.325C244.232 19.9846 245.228 20.2384 245.228 21.558L245.247 21.539Z" fill="white"/>
</g>
<g clip-path="url(#clip2_1494_1436)">
<path d="M577.701 8.5011C579.072 8.61681 580.442 7.80681 581.301 6.77452V6.77147C582.144 5.71787 582.701 4.29276 582.564 2.85547C581.343 2.91333 579.848 3.66547 578.992 4.72212C578.201 5.62347 577.528 7.10948 577.701 8.5011ZM574.309 27.3563C575.825 27.2985 576.422 26.3607 578.249 26.3607C580.089 26.3607 580.625 27.3563 582.223 27.335C583.88 27.3015 584.918 25.8308 585.932 24.3205C587.083 22.6061 587.564 20.9465 587.589 20.8551C587.555 20.8216 584.391 19.5914 584.355 15.8825C584.321 12.7764 586.858 11.3026 586.968 11.2112C585.539 9.05531 583.313 8.82388 582.537 8.76602L582.543 8.76907C580.554 8.65031 578.855 9.91403 577.917 9.91403C576.958 9.91403 575.521 8.82388 573.944 8.85738C571.903 8.89392 570.006 10.0663 568.968 11.9299C566.821 15.6723 568.408 21.2023 570.484 24.2504C571.501 25.7547 572.71 27.4142 574.309 27.3563ZM611.338 15.6054H614.456C614.718 14.2137 615.984 13.2972 617.723 13.2972C619.836 13.2972 621.024 14.2929 621.024 16.1352V17.3867L616.709 17.6547C612.702 17.8983 610.531 19.567 610.531 22.4629C610.543 25.3832 612.778 27.329 615.987 27.332C618.159 27.332 620.168 26.2206 621.079 24.4484H621.146V27.1616H624.343V15.919C624.343 12.6638 621.773 10.5535 617.824 10.5535C614.157 10.5535 611.444 12.682 611.338 15.6054ZM621.036 21.0439C621.036 23.1542 619.264 24.6585 616.925 24.6585C615.086 24.6585 613.911 23.7541 613.911 22.3868C613.911 20.9587 615.04 20.1395 617.199 20.0116L621.036 19.768V21.0439ZM594.005 4.56987V27.1585H597.464V19.4391H602.248C606.621 19.4391 609.681 16.391 609.681 11.9877C609.681 7.58452 606.669 4.56987 602.361 4.56987H594.005ZM606.167 11.9999C606.167 14.8502 604.456 16.4976 601.438 16.4976H597.464V7.52666H601.45C604.453 7.52666 606.167 9.14666 606.167 11.9999Z" fill="white"/>
<path d="M633.383 24.111L629.317 10.7734H625.709L631.556 27.22L631.236 28.2158C630.709 29.9058 629.853 30.5696 628.325 30.5696C628.051 30.5696 627.527 30.5361 627.308 30.5118V33.225C627.515 33.2737 628.373 33.3072 628.635 33.3072L628.632 33.3011C632 33.3011 633.587 31.9917 634.972 28.0392L641.035 10.7734H637.518L633.453 24.111H633.383Z" fill="white"/>
</g>
<g clip-path="url(#clip3_1494_1436)">
<path d="M334.816 2.85547H290.982C289.598 2.85547 288.475 3.97806 288.475 5.36285V30.7992C288.475 32.184 289.598 33.3066 290.982 33.3066H334.816C336.201 33.3066 337.324 32.184 337.324 30.7992V5.36285C337.324 3.97806 336.201 2.85547 334.816 2.85547Z" fill="white"/>
<path d="M336.742 20.1133C336.742 20.1133 323.979 29.2275 300.605 33.3067H336.742V20.1133Z" fill="#F58025"/>
<path d="M293.119 13.002H291.17V19.891H293.109C294.14 19.891 294.884 19.6449 295.537 19.0957C295.922 18.7732 296.232 18.3692 296.445 17.9123C296.659 17.4554 296.771 16.9567 296.773 16.4513C296.773 14.4182 295.272 13.002 293.119 13.002ZM294.67 18.1771C294.253 18.5584 293.711 18.7248 292.853 18.7248H292.497V14.1693H292.853C293.711 14.1693 294.232 14.3246 294.67 14.7263C294.903 14.9449 295.089 15.2103 295.216 15.5055C295.343 15.8008 295.407 16.1195 295.405 16.4413C295.407 16.7663 295.343 17.0881 295.216 17.3868C295.09 17.6854 294.904 17.9545 294.67 18.1771Z" fill="#231F20"/>
<path d="M298.712 13.002H297.384V19.891H298.712V13.002Z" fill="#231F20"/>
<path d="M301.959 15.6443C301.162 15.3459 300.928 15.1491 300.928 14.7769C300.928 14.343 301.345 14.0133 301.917 14.0133C302.126 14.0178 302.33 14.0705 302.516 14.1672C302.701 14.2637 302.863 14.402 302.988 14.5712L303.682 13.6506C303.132 13.1543 302.419 12.8821 301.682 12.8868C300.478 12.8868 299.559 13.7332 299.559 14.8608C299.559 15.8098 299.987 16.2958 301.234 16.75C301.551 16.8513 301.859 16.9826 302.152 17.1423C302.274 17.2158 302.374 17.3202 302.444 17.4452C302.514 17.5703 302.55 17.7116 302.55 17.8552C302.549 17.9886 302.521 18.1204 302.468 18.2425C302.414 18.3646 302.337 18.4745 302.241 18.5653C302.144 18.6563 302.031 18.7264 301.906 18.7714C301.782 18.8163 301.65 18.8352 301.519 18.8268C301.215 18.8318 300.917 18.7476 300.66 18.5846C300.403 18.4215 300.198 18.1865 300.07 17.9081L299.212 18.744C299.824 19.6527 300.558 20.0554 301.569 20.0554C302.948 20.0554 303.916 19.1271 303.916 17.7934C303.916 16.6988 303.469 16.2034 301.959 15.6443Z" fill="#231F20"/>
<path d="M304.335 16.451C304.331 16.9277 304.422 17.4002 304.602 17.8408C304.781 18.2814 305.047 18.681 305.382 19.0161C305.717 19.3513 306.114 19.6151 306.552 19.792C306.989 19.9689 307.457 20.0553 307.928 20.0461C308.506 20.0468 309.077 19.9092 309.593 19.6446V18.0627C309.062 18.6004 308.592 18.8173 307.99 18.8173C306.653 18.8173 305.703 17.8361 305.703 16.441C305.693 16.1372 305.743 15.8344 305.85 15.5502C305.957 15.2661 306.119 15.0063 306.326 14.7861C306.533 14.5659 306.781 14.3896 307.056 14.2675C307.331 14.1454 307.628 14.0799 307.928 14.075C308.561 14.075 309.041 14.3036 309.593 14.8501V13.2691C309.092 12.9911 308.53 12.8456 307.959 12.846C307.487 12.84 307.018 12.9287 306.58 13.107C306.141 13.2852 305.742 13.5496 305.405 13.8848C305.069 14.2198 304.801 14.6191 304.617 15.0596C304.433 15.5 304.337 15.9729 304.335 16.451Z" fill="#231F20"/>
<path d="M320.12 17.6294L318.305 13.002H316.854L319.743 20.0679H320.458L323.398 13.002H321.959L320.12 17.6294Z" fill="#231F20"/>
<path d="M323.999 19.8909H327.765V18.7249H325.326V16.8652H327.675V15.6984H325.326V14.1691H327.765V13.002H323.999V19.8909Z" fill="#231F20"/>
<path d="M333.022 15.0358C333.022 13.7461 332.144 13.002 330.613 13.002H328.644V19.891H329.97V17.1236H330.143L331.981 19.891H333.614L331.471 16.9888C332.471 16.7829 333.022 16.0906 333.022 15.0358ZM330.358 16.1736H329.97V14.0871H330.379C331.206 14.0871 331.656 14.4377 331.656 15.1082C331.656 15.8008 331.206 16.1736 330.358 16.1736Z" fill="#231F20"/>
<path d="M317.253 16.4503C317.253 17.1747 317.041 17.8829 316.643 18.4853C316.246 19.0875 315.68 19.5571 315.019 19.8343C314.358 20.1115 313.63 20.184 312.928 20.0427C312.226 19.9013 311.581 19.5524 311.075 19.0402C310.569 18.5279 310.224 17.8752 310.084 17.1646C309.945 16.4542 310.016 15.7176 310.29 15.0484C310.564 14.379 311.028 13.8069 311.623 13.4045C312.218 13.002 312.918 12.7871 313.634 12.7871C314.109 12.787 314.58 12.8817 315.019 13.0657C315.458 13.2498 315.857 13.5196 316.194 13.8598C316.53 14.1999 316.796 14.6038 316.978 15.0483C317.16 15.4928 317.253 15.9692 317.253 16.4503Z" fill="#F58025"/>
<path d="M333.731 13.1379C333.731 13.0172 333.648 12.9512 333.504 12.9512H333.312V13.5567H333.455V13.3218L333.622 13.5567H333.796L333.6 13.307C333.638 13.299 333.672 13.2777 333.696 13.2467C333.72 13.2157 333.732 13.1772 333.731 13.1379ZM333.479 13.2206H333.455V13.0622H333.481C333.551 13.0622 333.588 13.088 333.588 13.1402C333.588 13.1936 333.55 13.2206 333.479 13.2206Z" fill="#231F20"/>
<path d="M333.533 12.7247C333.43 12.7232 333.328 12.753 333.241 12.8101C333.155 12.8673 333.087 12.9492 333.046 13.0456C333.006 13.1419 332.994 13.2483 333.014 13.3512C333.033 13.4541 333.082 13.5488 333.155 13.6233C333.227 13.6979 333.32 13.7489 333.422 13.7698C333.523 13.7907 333.628 13.7806 333.724 13.7409C333.82 13.7011 333.902 13.6334 333.959 13.5465C334.017 13.4595 334.048 13.3571 334.048 13.2524C334.049 13.1134 333.995 12.9797 333.898 12.8807C333.802 12.7818 333.67 12.7256 333.533 12.7247ZM333.531 13.6861C333.446 13.6891 333.361 13.6664 333.289 13.6206C333.216 13.5749 333.159 13.5083 333.124 13.4294C333.09 13.3504 333.079 13.2628 333.094 13.1777C333.109 13.0925 333.148 13.0139 333.207 12.9517C333.267 12.8896 333.343 12.8467 333.427 12.8288C333.51 12.8109 333.597 12.8186 333.676 12.8509C333.755 12.8834 333.823 12.939 333.871 13.0106C333.919 13.0823 333.944 13.1668 333.944 13.2532C333.946 13.3658 333.903 13.4747 333.826 13.5558C333.748 13.637 333.642 13.6838 333.531 13.6861Z" fill="#231F20"/>
</g>
<g clip-path="url(#clip4_1494_1436)">
<path d="M196.887 32.8877V32.9701H196.956H196.995C196.997 32.9654 196.999 32.9599 196.999 32.9543C196.999 32.9487 196.997 32.9433 196.995 32.9385H196.956L196.887 32.8877ZM196.956 32.8369C196.971 32.831 196.986 32.828 197.001 32.828C197.016 32.828 197.031 32.831 197.045 32.8369C197.05 32.8479 197.053 32.8598 197.053 32.8718C197.053 32.8839 197.05 32.8958 197.045 32.9068C197.049 32.9157 197.051 32.9254 197.051 32.9353C197.051 32.9451 197.049 32.9548 197.045 32.9639C197.023 32.972 196.998 32.972 196.975 32.9639L197.071 33.0717H196.995L196.906 32.9639V33.0717H196.842V32.7798L196.956 32.8369ZM196.956 33.2303C196.988 33.2393 197.021 33.2393 197.052 33.2303C197.083 33.2197 197.111 33.2023 197.134 33.1795C197.155 33.1568 197.172 33.1311 197.185 33.1034C197.21 33.0403 197.21 32.9699 197.185 32.9068C197.172 32.8791 197.155 32.8534 197.134 32.8306C197.111 32.806 197.083 32.7866 197.052 32.7735H196.956H196.861C196.83 32.7866 196.802 32.806 196.779 32.8306C196.745 32.8662 196.722 32.9111 196.713 32.9595C196.704 33.0079 196.709 33.0579 196.728 33.1034C196.74 33.1319 196.757 33.1578 196.779 33.1795C196.802 33.2041 196.83 33.2236 196.861 33.2366C196.893 33.2426 196.925 33.2426 196.956 33.2366V33.2303ZM196.956 32.6656C197.042 32.6658 197.124 32.7001 197.185 32.7608C197.216 32.7888 197.24 32.8235 197.255 32.8623C197.274 32.9008 197.284 32.9431 197.284 32.986C197.284 33.029 197.274 33.0713 197.255 33.1097C197.241 33.1493 197.217 33.1844 197.185 33.2113C197.156 33.2414 197.122 33.2652 197.083 33.281C197.043 33.2978 197 33.3064 196.956 33.3064C196.913 33.3064 196.87 33.2978 196.83 33.281C196.79 33.2638 196.754 33.2402 196.722 33.2113C196.695 33.1814 196.673 33.147 196.658 33.1097C196.639 33.0713 196.629 33.029 196.629 32.986C196.629 32.9431 196.639 32.9008 196.658 32.8623C196.692 32.7859 196.753 32.7248 196.83 32.691C196.871 32.6815 196.915 32.6815 196.956 32.691V32.6656ZM166.994 31.5491C167 31.3576 167.063 31.1722 167.175 31.0163C167.286 30.8605 167.441 30.741 167.621 30.6733C167.8 30.6055 167.995 30.5923 168.182 30.6353C168.369 30.6784 168.539 30.7758 168.67 30.9153C168.802 31.0547 168.889 31.23 168.921 31.4188C168.953 31.6078 168.928 31.8021 168.85 31.9771C168.772 32.1521 168.644 32.3 168.482 32.4022C168.319 32.5044 168.131 32.5564 167.939 32.5514C167.806 32.5535 167.674 32.5279 167.551 32.4764C167.428 32.4247 167.317 32.3483 167.225 32.2517C167.134 32.1551 167.063 32.0405 167.017 31.9153C166.972 31.79 166.953 31.6567 166.962 31.5237L166.994 31.5491ZM169.563 31.5237V29.9188H168.865V30.312C168.747 30.1572 168.592 30.0332 168.416 29.9504C168.239 29.8677 168.045 29.8284 167.85 29.8362C167.403 29.8362 166.974 30.014 166.657 30.3305C166.341 30.647 166.163 31.0762 166.163 31.5237C166.163 31.9713 166.341 32.4005 166.657 32.717C166.974 33.0334 167.403 33.2113 167.85 33.2113C168.045 33.2187 168.238 33.1801 168.414 33.0984C168.591 33.0169 168.745 32.8946 168.865 32.7418V33.1288H169.563V31.5237ZM193.163 31.5237C193.174 31.3346 193.24 31.1529 193.353 31.0009C193.467 30.849 193.622 30.7335 193.8 30.6687C193.978 30.6039 194.171 30.5927 194.355 30.6364C194.54 30.6799 194.707 30.7766 194.837 30.9144C194.967 31.0521 195.054 31.2249 195.087 31.4115C195.121 31.598 195.098 31.7903 195.023 31.9643C194.949 32.1384 194.824 32.2867 194.666 32.391C194.508 32.4954 194.323 32.5512 194.133 32.5514C194.001 32.5526 193.869 32.5264 193.747 32.4744C193.625 32.4224 193.515 32.3458 193.424 32.2493C193.333 32.1528 193.263 32.0386 193.218 31.9138C193.173 31.7889 193.154 31.6562 193.163 31.5237ZM195.764 31.5237V28.6309H195.072V30.312C194.956 30.1566 194.803 30.0319 194.627 29.949C194.451 29.866 194.258 29.8273 194.064 29.8362C193.616 29.8362 193.187 30.014 192.87 30.3305C192.554 30.647 192.376 31.0762 192.376 31.5237C192.376 31.9713 192.554 32.4005 192.87 32.717C193.187 33.0334 193.616 33.2113 194.064 33.2113C194.257 33.2197 194.45 33.1816 194.625 33.0998C194.801 33.0181 194.954 32.8953 195.072 32.7418V33.1288H195.776L195.764 31.5237ZM178.242 30.4643C178.346 30.4617 178.451 30.48 178.548 30.5179C178.646 30.5558 178.735 30.6128 178.81 30.6853C178.886 30.7578 178.946 30.8446 178.988 30.9406C179.03 31.0366 179.052 31.1399 179.054 31.2446H177.392C177.403 31.0292 177.499 30.8269 177.657 30.681C177.816 30.5352 178.026 30.4574 178.242 30.4643ZM178.242 29.8299C177.794 29.8358 177.367 30.0192 177.055 30.3398C176.743 30.6605 176.571 31.0921 176.576 31.5396C176.582 31.9871 176.766 32.414 177.086 32.7263C177.407 33.0387 177.839 33.2108 178.286 33.2049C178.764 33.2224 179.232 33.0619 179.599 32.7545L179.257 32.2343C178.992 32.4477 178.664 32.5661 178.324 32.5705C178.094 32.5901 177.864 32.5189 177.685 32.3719C177.506 32.2249 177.392 32.014 177.366 31.7839H179.752C179.752 31.7014 179.752 31.6126 179.752 31.5174C179.772 31.3041 179.747 31.0889 179.68 30.8856C179.612 30.6822 179.503 30.4952 179.359 30.3364C179.216 30.1776 179.04 30.0505 178.844 29.9634C178.649 29.8761 178.437 29.8307 178.223 29.8299H178.242ZM186.66 31.5174C186.671 31.3283 186.738 31.1465 186.851 30.9945C186.964 30.8427 187.119 30.7271 187.297 30.6623C187.475 30.5976 187.668 30.5863 187.853 30.63C188.037 30.6737 188.205 30.7703 188.335 30.908C188.465 31.0458 188.552 31.2186 188.585 31.4051C188.618 31.5918 188.596 31.7839 188.521 31.9579C188.446 32.132 188.322 32.2803 188.164 32.3847C188.006 32.489 187.82 32.5448 187.631 32.5452C187.498 32.5463 187.367 32.52 187.245 32.4681C187.122 32.416 187.012 32.3394 186.921 32.2429C186.83 32.1465 186.76 32.0323 186.715 31.9074C186.67 31.7826 186.651 31.6498 186.66 31.5174ZM189.255 31.5174V29.9188H188.557V30.312C188.439 30.1565 188.285 30.0318 188.108 29.9489C187.931 29.866 187.737 29.8274 187.542 29.8362C187.094 29.8362 186.665 30.014 186.349 30.3305C186.032 30.647 185.855 31.0762 185.855 31.5237C185.855 31.9713 186.032 32.4005 186.349 32.717C186.665 33.0334 187.094 33.2113 187.542 33.2113C187.736 33.2197 187.93 33.1816 188.107 33.0998C188.283 33.0182 188.438 32.8954 188.557 32.7418V33.1288H189.255V31.5237V31.5174ZM182.714 31.5174C182.704 31.7447 182.742 31.9716 182.825 32.1835C182.908 32.3953 183.035 32.5872 183.197 32.747C183.359 32.9067 183.553 33.0305 183.766 33.1105C183.979 33.1904 184.206 33.2248 184.433 33.2113C184.853 33.2323 185.266 33.0941 185.588 32.8243L185.252 32.2597C185.01 32.4463 184.714 32.5488 184.408 32.5514C184.135 32.5514 183.874 32.4432 183.681 32.2505C183.489 32.0578 183.38 31.7963 183.38 31.5237C183.38 31.2512 183.489 30.9898 183.681 30.797C183.874 30.6043 184.135 30.496 184.408 30.496C184.712 30.4996 185.008 30.5995 185.252 30.7815L185.588 30.2169C185.264 29.9515 184.852 29.8159 184.433 29.8362C184.207 29.8237 183.981 29.8585 183.769 29.9385C183.558 30.0186 183.365 30.142 183.203 30.3009C183.042 30.4597 182.916 30.6506 182.833 30.8612C182.75 31.0718 182.711 31.2975 182.721 31.5237L182.714 31.5174ZM191.723 29.8362C191.553 29.8314 191.385 29.8725 191.236 29.9551C191.088 30.0377 190.964 30.1588 190.879 30.3057V29.9188H190.213V33.1288H190.911V31.3271C190.911 30.8005 191.139 30.5024 191.596 30.5024C191.746 30.5015 191.894 30.5295 192.034 30.5849L192.243 29.9504C192.085 29.8913 191.917 29.8613 191.748 29.8617L191.723 29.8362ZM173.014 30.1724C172.631 29.9445 172.191 29.8282 171.745 29.8362C170.933 29.8362 170.407 30.2295 170.407 30.864C170.407 31.3905 170.794 31.714 171.517 31.8156L171.847 31.86C172.228 31.9107 172.412 32.0123 172.412 32.1962C172.412 32.3802 172.151 32.5832 171.676 32.5832C171.293 32.5954 170.917 32.4768 170.61 32.2469L170.28 32.7926C170.686 33.0786 171.173 33.2255 171.669 33.2113C172.596 33.2113 173.135 32.7735 173.135 32.1645C173.135 31.5555 172.71 31.3017 172.012 31.2002L171.682 31.1558C171.384 31.1178 171.143 31.0543 171.143 30.8386C171.143 30.6229 171.371 30.4643 171.777 30.4643C172.129 30.4691 172.474 30.5629 172.779 30.7371L173.078 30.1724H173.014ZM182.029 29.8362C181.858 29.8316 181.69 29.8727 181.54 29.9553C181.391 30.0378 181.266 30.1587 181.179 30.3057V29.9188H180.5V33.1288H181.198V31.3271C181.198 30.8005 181.426 30.5024 181.883 30.5024C182.033 30.5008 182.182 30.5289 182.321 30.5849L182.537 29.9504C182.378 29.8913 182.211 29.8613 182.042 29.8617L182.029 29.8362ZM176.078 29.9441H174.917V28.9417H174.232V29.9188H173.598V30.5531H174.232V32.0376C174.232 32.7862 174.524 33.2303 175.349 33.2303C175.658 33.2308 175.961 33.1451 176.224 32.9829L176.021 32.3485C175.829 32.4631 175.611 32.5264 175.387 32.5324C175.038 32.5324 174.924 32.3168 174.924 31.9932V30.5595H176.066L176.078 29.9441ZM165.636 33.1288V31.1178C165.646 30.9485 165.621 30.7789 165.56 30.6204C165.5 30.4618 165.407 30.3179 165.287 30.198C165.167 30.078 165.023 29.9849 164.865 29.9247C164.706 29.8646 164.537 29.8387 164.367 29.8489C164.146 29.837 163.925 29.8834 163.727 29.9836C163.528 30.0838 163.36 30.2342 163.238 30.4199C163.129 30.2384 162.973 30.0897 162.787 29.9892C162.6 29.8887 162.39 29.8402 162.179 29.8489C161.994 29.8396 161.811 29.8785 161.646 29.962C161.481 30.0454 161.341 30.1704 161.24 30.3247V29.9314H160.548V33.1414H161.253V31.3461C161.237 31.2363 161.247 31.1246 161.28 31.0189C161.313 30.9132 161.369 30.8161 161.445 30.7348C161.52 30.6535 161.612 30.5899 161.715 30.5486C161.818 30.5073 161.929 30.4893 162.039 30.496C162.502 30.496 162.737 30.8005 162.737 31.3398V33.1288H163.441V31.3461C163.427 31.2365 163.437 31.1253 163.471 31.02C163.505 30.9149 163.561 30.8183 163.636 30.7372C163.711 30.6561 163.803 30.5926 163.905 30.5509C164.007 30.5092 164.118 30.4905 164.228 30.496C164.704 30.496 164.932 30.7942 164.932 31.3398V33.1288H165.636Z" fill="#231F20"/>
<path d="M197.28 22.4461V21.9766H197.16L197.02 22.3001L196.88 21.9766H196.754V22.4461H196.842V22.0971L196.976 22.4016H197.064L197.198 22.0908V22.4461H197.28ZM196.506 22.4461V22.0591H196.665V21.9766H196.265V22.0591H196.417V22.4461H196.506Z" fill="#F79410"/>
<path d="M183.38 24.4636H172.798V5.43164H183.38V24.4636Z" fill="#FF5F00"/>
<path d="M173.471 14.953C173.468 13.1211 173.882 11.3126 174.682 9.66481C175.482 8.01701 176.648 6.57329 178.089 5.44333C176.304 4.04199 174.161 3.17099 171.905 2.92983C169.648 2.68868 167.369 3.08709 165.328 4.07956C163.287 5.07203 161.567 6.61853 160.363 8.54239C159.159 10.4663 158.521 12.6899 158.521 14.9593C158.521 17.2287 159.159 19.4523 160.363 21.3762C161.567 23.3001 163.287 24.8466 165.328 25.8391C167.369 26.8315 169.648 27.2299 171.905 26.9888C174.161 26.7477 176.304 25.8767 178.089 24.4753C176.647 23.3447 175.481 21.8999 174.681 20.2509C173.88 18.602 173.467 16.7922 173.471 14.9593" fill="#EB001B"/>
<path d="M197.66 14.953C197.662 17.2235 197.025 19.4485 195.821 21.3734C194.617 23.2984 192.895 24.8455 190.853 25.8377C188.811 26.8299 186.531 27.2272 184.274 26.9841C182.017 26.7409 179.873 25.8671 178.089 24.4627C179.531 23.3308 180.697 21.886 181.499 20.2375C182.3 18.589 182.717 16.7798 182.717 14.9468C182.717 13.1136 182.3 11.3045 181.499 9.65599C180.697 8.00748 179.531 6.56269 178.089 5.43076C179.874 4.02603 182.017 3.15217 184.275 2.90924C186.533 2.6663 188.814 3.06412 190.856 4.05714C192.899 5.05015 194.62 6.59823 195.823 8.52411C197.027 10.45 197.663 12.6758 197.66 14.9468" fill="#F79E1B"/>
</g>
<g clip-path="url(#clip5_1494_1436)">
<path d="M24.5862 4.29836L18.1939 23.9539L16.9845 18.4254C15.1493 13.6407 11.9054 9.52568 7.68164 6.62406L13.8082 31.8746H21.184L31.5101 4.33823H24.5862V4.29836ZM79.6457 4.29836H72.2698L60.9603 31.8214H67.8443L69.3195 27.8345H78.1705L79.1539 31.8214H85.0545L79.6457 4.29836ZM70.7947 22.9705L74.7816 12.6576L76.7484 22.9705H70.7947ZM51.1258 12.1526C51.1258 10.6907 52.1093 9.20228 55.5513 9.20228C57.3453 9.37212 59.0523 10.055 60.4685 11.1692L61.9437 5.2818C59.9118 4.43155 57.7503 3.93273 55.5513 3.80664C48.1755 3.80664 44.7335 7.79357 44.7335 12.1659C44.7335 21.0035 54.5678 19.5417 54.5678 23.9539C54.5678 24.9373 54.0761 26.4125 50.1424 26.4125C47.7695 26.4097 45.4239 25.9071 43.2583 24.9373L42.2748 30.838C44.5727 31.9349 47.1077 32.4419 49.6506 32.3132C54.0761 32.8049 60.9603 28.8712 60.9603 23.0104C60.9603 16.0863 51.1258 15.608 51.1258 12.1526Z" fill="#1565C0"/>
<path d="M30.4863 32.3141H37.3705L41.796 4.79102H34.4201L30.4863 32.3141Z" fill="#1565C0"/>
<path d="M17.2766 19.5277L14.7517 7.24798C14.4021 6.49178 13.8376 5.85532 13.1285 5.41806C12.4195 4.9808 11.5973 4.76214 10.7647 4.78938H0C0 4.78938 14.2599 9.21487 17.2766 19.5277Z" fill="#FF9800"/>
</g>
<path d="M116.307 31.3841L116.807 28.2439H115.693H110.44L114.095 5.03428C114.104 4.96242 114.14 4.89643 114.195 4.84871C114.252 4.80442 114.322 4.77938 114.395 4.77734H123.258C126.214 4.77734 128.241 5.39112 129.311 6.60441C129.785 7.11338 130.115 7.73907 130.267 8.41688C130.434 9.24151 130.434 10.0906 130.267 10.9152V11.6289L130.767 11.9144C131.148 12.1037 131.491 12.3598 131.78 12.6705C132.217 13.1974 132.498 13.8353 132.594 14.5123C132.701 15.3973 132.662 16.2945 132.479 17.1672C132.292 18.2276 131.92 19.2464 131.381 20.1787C130.945 20.9266 130.356 21.5734 129.653 22.0775C128.946 22.5604 128.158 22.9127 127.327 23.1191C126.394 23.3548 125.435 23.4698 124.472 23.4617H123.772C123.282 23.4625 122.807 23.6338 122.431 23.947C122.052 24.2667 121.803 24.7137 121.732 25.2031V25.4886L120.86 31.0269V31.2414C120.871 31.2789 120.871 31.3181 120.86 31.3556H120.775L116.307 31.3841Z" fill="#253D80"/>
<path d="M131.238 11.0586L131.153 11.5871C129.982 17.5822 125.972 19.6662 120.862 19.6662H118.264C117.638 19.6654 117.106 20.1189 117.008 20.7364L115.68 29.1866L115.295 31.5846C115.265 31.7771 115.321 31.972 115.447 32.1196C115.573 32.2673 115.757 32.3537 115.951 32.3554H120.576C121.124 32.3554 121.591 31.9549 121.675 31.4133V31.1849L122.546 25.6613V25.3611C122.623 24.822 123.085 24.4207 123.631 24.419H124.387C128.855 24.419 132.366 22.6067 133.38 17.282C133.928 15.4623 133.59 13.4909 132.466 11.9583C132.11 11.592 131.694 11.2886 131.238 11.0586Z" fill="#189BD7"/>
<path d="M130.011 10.5734L129.468 10.4306L128.869 10.3165C128.113 10.2031 127.349 10.1509 126.585 10.159H119.619C119.456 10.155 119.295 10.1892 119.148 10.2594C118.817 10.4143 118.587 10.7251 118.534 11.0872L117.107 20.4648V20.7365C117.205 20.119 117.738 19.6647 118.363 19.6655H120.961C126.071 19.6655 130.082 17.5815 131.252 11.5864L131.338 11.0587C131.031 10.8996 130.71 10.7659 130.382 10.659L130.011 10.5734Z" fill="#242E65"/>
<path d="M118.534 11.0864C118.587 10.725 118.817 10.4135 119.149 10.2585C119.295 10.1883 119.457 10.1541 119.619 10.1582H126.585C127.349 10.15 128.113 10.2022 128.869 10.3156L129.468 10.4298L130.011 10.5725L130.282 10.6581C130.611 10.765 130.931 10.8988 131.238 11.0578C131.702 9.2748 131.277 7.37685 130.096 5.96201C128.669 4.44897 126.328 3.80664 123.273 3.80664H114.395C113.77 3.80591 113.238 4.2599 113.139 4.87719L109.442 28.3008C109.409 28.5218 109.473 28.7461 109.618 28.9158C109.764 29.0855 109.975 29.1842 110.198 29.1858H115.68L117.107 20.4648L118.534 11.0864Z" fill="#253D80"/>
<path d="M449.771 27.0447H452.76L453.28 28.7118H455.118L452.263 20.6114H450.312L447.427 28.7125H449.208L449.771 27.0447ZM451.261 22.4409H451.283L452.286 25.643H450.222L451.261 22.4409ZM446.935 26.3125C446.935 25.5112 446.676 24.7216 445.684 24.3504C446.022 24.1816 446.676 23.8552 446.676 22.6912C446.676 21.8562 446.169 20.6138 444.183 20.6138H440.246V28.7157H443.676C445.335 28.7157 445.775 28.4331 446.237 27.9795C446.665 27.5643 446.935 26.9521 446.935 26.3125ZM441.872 22.0147H443.812C444.579 22.0147 445.053 22.2172 445.053 22.8827C445.053 23.5271 444.524 23.7861 443.856 23.7861H441.872V22.0147ZM443.946 27.3155H441.872V25.1486H444.026C444.636 25.1486 445.244 25.4225 445.244 26.1304C445.243 26.9521 444.769 27.3155 443.946 27.3155ZM468.143 23.9305L471.64 28.7118H469.462L466.958 25.158L466.169 25.9711V28.7118H464.476V20.6114H466.169V23.9054L469.261 20.6114H471.449L468.143 23.9305ZM447.428 33.2105C447.428 32.4358 447.242 32.3087 446.901 32.1588C447.311 32.0199 447.543 31.629 447.543 31.1691C447.543 30.8112 447.342 29.9973 446.238 29.9973H444.139V34.146H444.99V32.5237H445.885C446.527 32.5237 446.562 32.7443 446.562 33.3078C446.562 33.7347 446.595 33.9514 446.654 34.1452H447.613V34.0369C447.428 33.9671 447.428 33.8156 447.428 33.2105ZM446.004 31.826H444.99V30.7139H446.069C446.577 30.7139 446.676 31.0357 446.676 31.257C446.675 31.6651 446.457 31.826 446.004 31.826ZM448.816 13.5219C448.81 13.3359 448.804 13.1115 448.795 12.8525C448.78 12.5903 448.847 12.3046 448.875 11.9821C448.908 11.6587 448.952 11.3079 449.074 10.95C449.177 10.589 449.267 10.1934 449.465 9.82375C449.552 9.63382 449.641 9.43918 449.734 9.24297C449.831 9.0499 449.966 8.87487 450.082 8.68572C450.311 8.29723 450.608 7.95583 450.913 7.61442C451.206 7.25732 451.57 6.98497 451.9 6.67103C452.263 6.41439 452.609 6.11694 452.98 5.90739C453.345 5.67743 453.705 5.47101 454.059 5.30149C454.409 5.11234 454.756 4.98441 455.073 4.84314C455.561 4.65321 455.996 4.50566 456.354 4.40049C456.205 4.0324 456.076 3.6494 455.981 3.2405C455.881 2.82061 455.796 2.39052 455.788 1.90234C456.258 2.03341 456.652 2.22491 457.035 2.42505C457.416 2.62754 457.764 2.85278 458.089 3.09765C458.746 3.5819 459.305 4.14071 459.813 4.74033C460.198 5.19397 460.231 5.82813 459.946 6.31237L459.886 6.41126C459.42 7.1906 458.865 7.9158 458.193 8.56407C457.862 8.88978 457.495 9.19431 457.087 9.47449C456.882 9.61184 456.667 9.74527 456.448 9.87398C456.22 9.99799 455.981 10.1126 455.716 10.213C455.698 9.93205 455.702 9.66521 455.722 9.40778C455.747 9.15349 455.78 8.90549 455.82 8.65983C455.907 8.17559 456.031 7.71488 456.191 7.27773C456.207 7.22985 456.226 7.1859 456.244 7.13881C456.088 7.15843 455.926 7.17962 455.751 7.20473C455.477 7.2636 455.163 7.30363 454.85 7.39467C454.529 7.46766 454.2 7.56968 453.866 7.69133C453.517 7.79415 453.203 7.97231 452.848 8.11436C452.535 8.30743 452.174 8.46676 451.878 8.70222C451.567 8.92668 451.254 9.15271 450.998 9.4329C450.867 9.56868 450.715 9.69268 450.597 9.8371C450.485 9.98543 450.371 10.1353 450.261 10.2797C450.017 10.5623 449.866 10.8888 449.7 11.1909C449.518 11.4884 449.408 11.7976 449.313 12.0872C449.224 12.3776 449.096 12.6406 449.058 12.8886C449.011 13.1366 448.97 13.3524 448.936 13.5313C448.869 13.8924 448.83 14.0996 448.83 14.0996C448.83 14.0996 448.827 13.8892 448.816 13.5219ZM440.247 29.9973H443.622V30.7343H442.365V34.1484H441.501V30.7343H440.247V29.9973ZM449.353 29.9973L447.875 34.146H448.788L449.076 33.2897H450.608L450.874 34.146H451.816L450.356 29.9973H449.353ZM449.309 32.574L449.842 30.9344H449.85L450.367 32.574H449.309ZM456.971 15.9981C456.627 16.1967 456.284 16.3364 455.972 16.4863C455.488 16.6903 455.061 16.8504 454.704 16.9666C454.866 17.3292 455.005 17.7091 455.113 18.1148C455.221 18.5324 455.321 18.9585 455.346 19.4451C454.869 19.329 454.471 19.1492 454.084 18.9609C453.694 18.771 453.34 18.5567 453.008 18.3212C452.339 17.8566 451.763 17.3143 451.237 16.7311C450.838 16.2877 450.785 15.6559 451.057 15.163L451.115 15.0641C451.557 14.2699 452.09 13.529 452.742 12.8611C453.063 12.5244 453.42 12.2097 453.817 11.9177C454.02 11.7741 454.227 11.6344 454.445 11.5002C454.668 11.3691 454.905 11.2467 455.165 11.1391C455.191 11.4185 455.195 11.6862 455.182 11.9444C455.164 12.1987 455.14 12.4483 455.109 12.6955C455.036 13.1813 454.925 13.6444 454.779 14.0886C454.763 14.1357 454.744 14.1804 454.73 14.2275C454.883 14.2047 455.046 14.1781 455.221 14.1467C455.494 14.0815 455.806 14.0313 456.114 13.9308C456.433 13.8484 456.76 13.7378 457.088 13.6051C457.435 13.4929 457.743 13.3045 458.093 13.1523C458.4 12.949 458.758 12.781 459.045 12.5362C459.349 12.3039 459.655 12.066 459.902 11.7804C460.032 11.6407 460.178 11.5112 460.294 11.3644C460.401 11.2114 460.509 11.0591 460.614 10.9108C460.851 10.6204 460.992 10.2907 461.147 9.98386C461.321 9.68012 461.421 9.36933 461.505 9.0758C461.586 8.78305 461.706 8.51699 461.737 8.26819C461.776 8.01861 461.81 7.80121 461.839 7.62227C461.901 7.25967 461.93 7.05168 461.93 7.05168C461.93 7.05168 461.946 7.26046 461.965 7.62619C461.975 7.8122 461.987 8.03745 462.004 8.29566C462.027 8.55701 461.971 8.84583 461.95 9.16762C461.927 9.49176 461.891 9.84416 461.782 10.2044C461.689 10.567 461.61 10.9665 461.424 11.3409C461.343 11.5339 461.259 11.7309 461.174 11.9295C461.08 12.1257 460.954 12.3046 460.843 12.4977C460.624 12.8933 460.34 13.2417 460.045 13.5926C459.761 13.9567 459.406 14.2416 459.086 14.5642C458.729 14.8326 458.392 15.1395 458.027 15.36C457.674 15.6018 457.319 15.8192 456.971 15.9981ZM460.411 29.9973H463.363V30.7343H461.278V31.6706H463.105V32.4044H461.278V34.1491H460.411V29.9973ZM454.908 29.9973H455.718V34.146H454.849L453.157 31.1871H453.143V34.146H452.336V29.9973H453.248L454.897 32.8855H454.907L454.908 29.9973ZM471.091 33.2105C471.091 32.4358 470.903 32.3087 470.564 32.1588C470.973 32.0199 471.208 31.629 471.208 31.1691C471.208 30.8112 471.005 29.9973 469.901 29.9973H467.804V34.146H468.656V32.5237H469.551C470.19 32.5237 470.228 32.7443 470.228 33.3078C470.228 33.7347 470.261 33.9514 470.32 34.1452H471.276V34.0369C471.091 33.9671 471.091 33.8156 471.091 33.2105ZM469.67 31.826H468.654V30.7139H469.732C470.242 30.7139 470.341 31.0357 470.341 31.257C470.341 31.6651 470.121 31.826 469.67 31.826ZM459.749 32.8989C459.749 34.1429 458.476 34.2567 458.115 34.2567C456.6 34.2567 456.342 33.3863 456.342 32.8691H457.171C457.177 33.1006 457.294 33.5393 458.052 33.5393C458.459 33.5393 458.917 33.4389 458.917 33.0048C458.917 32.6791 458.604 32.5944 458.166 32.4884L457.722 32.3832C457.051 32.2294 456.405 32.0772 456.405 31.1628C456.405 30.7013 456.652 29.8874 457.999 29.8874C459.271 29.8874 459.611 30.7178 459.617 31.2264H458.788C458.764 31.0419 458.695 30.604 457.936 30.604C457.609 30.604 457.214 30.7241 457.214 31.0992C457.214 31.4226 457.48 31.4924 457.655 31.534L458.663 31.7828C459.228 31.9202 459.749 32.1533 459.749 32.8989ZM464.794 33.4122H467.095V34.1484H463.945V29.9997H466.997V30.7351H464.794V31.607H466.817V32.3409H464.794V33.4122ZM457.704 28.7157H456.125V20.6145H457.907L461.124 26.2552H461.145V20.6145H462.724V28.7165H461.034L457.727 22.9408H457.706L457.704 28.7157Z" fill="white"/>
<path d="M504.963 2.85547H517.113C518.809 2.85547 519.864 4.23824 519.469 5.93932L513.812 30.227C513.413 31.923 511.714 33.3066 510.017 33.3066H497.867C496.174 33.3066 495.117 31.923 495.513 30.227L501.172 5.93932C501.568 4.23824 503.264 2.85547 504.963 2.85547Z" fill="#E21836"/>
<path d="M516.103 2.85547H530.075C531.771 2.85547 531.006 4.23824 530.607 5.93932L524.952 30.227C524.554 31.923 524.678 33.3066 522.978 33.3066H509.006C507.307 33.3066 506.255 31.923 506.654 30.227L512.31 5.93932C512.711 4.23824 514.406 2.85547 516.103 2.85547Z" fill="#00447C"/>
<path d="M529.521 2.85547H541.671C543.37 2.85547 544.425 4.23824 544.026 5.93932L538.37 30.227C537.971 31.923 536.272 33.3066 534.573 33.3066H522.428C520.729 33.3066 519.675 31.923 520.073 30.227L525.73 5.93932C526.126 4.23824 527.822 2.85547 529.521 2.85547Z" fill="#007B84"/>
<path d="M508.136 10.6386C506.886 10.6513 506.518 10.6386 506.4 10.6109C506.354 10.8256 505.511 14.7154 505.509 14.7187C505.328 15.5053 505.195 16.0661 504.747 16.4291C504.491 16.6396 504.194 16.7407 503.85 16.7407C503.296 16.7407 502.973 16.4661 502.918 15.944L502.908 15.7646C502.908 15.7646 503.077 14.7103 503.077 14.7044C503.077 14.7044 503.962 11.1608 504.12 10.6917C504.128 10.6648 504.131 10.6513 504.134 10.6386C502.411 10.6538 502.106 10.6386 502.085 10.6109C502.073 10.6487 502.03 10.8685 502.03 10.8685L501.126 14.8636L501.049 15.2021L500.899 16.3103C500.899 16.6396 500.964 16.9074 501.092 17.1348C501.504 17.854 502.677 17.9617 503.342 17.9617C504.198 17.9617 505.001 17.7798 505.543 17.448C506.486 16.8914 506.731 16.0215 506.951 15.2484L507.053 14.8518C507.053 14.8518 507.965 11.1709 508.12 10.6917C508.126 10.6648 508.128 10.6513 508.136 10.6386ZM511.238 13.608C511.018 13.608 510.616 13.6619 510.256 13.8387C510.124 13.9052 510.001 13.9836 509.87 14.0602L509.988 13.6349L509.924 13.5633C509.158 13.7183 508.987 13.7385 508.281 13.8387L508.221 13.8774C508.139 14.5579 508.067 15.0699 507.762 16.4063C507.647 16.8998 507.526 17.3967 507.406 17.8885L507.439 17.9508C508.162 17.9129 508.382 17.9129 509.012 17.923L509.062 17.8683C509.142 17.4582 509.153 17.3621 509.33 16.5327C509.414 16.1394 509.587 15.2754 509.672 14.968C509.83 14.8947 509.985 14.8231 510.133 14.8231C510.486 14.8231 510.443 15.1305 510.429 15.2535C510.414 15.459 510.285 16.1318 510.154 16.7087L510.065 17.0809C510.005 17.3562 509.937 17.6241 509.876 17.8969L509.903 17.9508C510.616 17.9129 510.834 17.9129 511.443 17.923L511.516 17.8683C511.625 17.2283 511.658 17.0573 511.853 16.1259L511.952 15.6973C512.142 14.8602 512.238 14.4358 512.094 14.0897C511.941 13.7014 511.574 13.608 511.238 13.608ZM514.702 14.4855C514.323 14.5579 514.081 14.6067 513.841 14.6379C513.602 14.6758 513.37 14.7111 513.003 14.7617L512.974 14.7878L512.947 14.8088C512.909 15.0825 512.882 15.3183 512.832 15.5954C512.789 15.8825 512.723 16.2084 512.615 16.6775C512.532 17.0363 512.489 17.1609 512.442 17.2872C512.396 17.4135 512.345 17.5356 512.252 17.8885L512.273 17.9213L512.291 17.9508C512.634 17.9348 512.859 17.923 513.089 17.9213C513.319 17.9129 513.557 17.9213 513.927 17.923L513.959 17.8969L513.993 17.8683C514.046 17.5499 514.055 17.4641 514.087 17.3091C514.119 17.1424 514.175 16.9125 514.311 16.2969C514.376 16.008 514.448 15.7192 514.515 15.4244C514.584 15.1305 514.657 14.8417 514.727 14.552L514.716 14.5175L514.702 14.4855ZM514.711 13.3031C514.366 13.0993 513.761 13.1642 513.354 13.4446C512.947 13.72 512.902 14.1116 513.245 14.317C513.584 14.5149 514.191 14.456 514.595 14.173C515 13.8918 515.051 13.5044 514.711 13.3031ZM516.796 18.0148C517.493 18.0148 518.208 17.8228 518.746 17.2518C519.16 16.7895 519.35 16.1015 519.415 15.8177C519.629 14.8787 519.463 14.44 519.254 14.173C518.936 13.7655 518.373 13.6349 517.79 13.6349C517.44 13.6349 516.604 13.6694 515.952 14.2707C515.484 14.7053 515.267 15.2939 515.137 15.8581C515.004 16.4333 514.853 17.4691 515.805 17.8539C516.099 17.9803 516.522 18.0148 516.796 18.0148ZM516.741 15.9011C516.902 15.1895 517.091 14.5924 517.576 14.5924C517.956 14.5924 517.983 15.037 517.815 15.7503C517.784 15.9095 517.645 16.4981 517.458 16.7491C517.327 16.9343 517.172 17.0463 517.001 17.0463C516.951 17.0463 516.647 17.0464 516.642 16.5967C516.64 16.3743 516.685 16.1478 516.741 15.9011ZM521.159 17.923L521.213 17.8683C521.291 17.4582 521.304 17.3621 521.474 16.5327C521.56 16.1394 521.737 15.2754 521.821 14.968C521.978 14.8947 522.13 14.8231 522.284 14.8231C522.634 14.8231 522.591 15.1305 522.578 15.2535C522.564 15.459 522.436 16.131 522.302 16.7087L522.219 17.0809C522.155 17.3562 522.086 17.6241 522.024 17.8969L522.051 17.9508C522.767 17.9129 522.977 17.9129 523.59 17.923L523.664 17.8683C523.771 17.2283 523.8 17.0565 524.002 16.1259L524.098 15.6973C524.29 14.8602 524.387 14.4358 524.244 14.0897C524.087 13.7023 523.718 13.608 523.386 13.608C523.166 13.608 522.762 13.661 522.404 13.8387C522.275 13.9052 522.147 13.9827 522.021 14.0602L522.13 13.6349L522.072 13.5633C521.307 13.7183 521.133 13.7393 520.427 13.8387L520.372 13.8774C520.287 14.5579 520.217 15.0691 519.913 16.4063C519.797 16.8998 519.677 17.3967 519.557 17.8885L519.589 17.9508C520.314 17.9129 520.53 17.9129 521.159 17.923ZM526.42 17.9508C526.466 17.731 526.733 16.4291 526.735 16.4291C526.735 16.4291 526.963 15.4733 526.977 15.4387C526.977 15.4387 527.049 15.3385 527.12 15.2998H527.225C528.221 15.2998 529.344 15.2998 530.224 14.6522C530.824 14.2076 531.233 13.5515 531.416 12.7541C531.463 12.5587 531.498 12.3263 531.498 12.0938C531.498 11.7881 531.437 11.4867 531.26 11.25C530.811 10.6226 529.917 10.6109 528.884 10.6058C528.881 10.6058 528.376 10.6109 528.376 10.6109C527.054 10.6269 526.525 10.6227 526.307 10.5957C526.289 10.6917 526.254 10.8627 526.254 10.8627C526.254 10.8627 525.781 13.0564 525.781 13.0597C525.781 13.0597 524.648 17.7234 524.595 17.9432C525.748 17.9289 526.222 17.9289 526.42 17.9508ZM527.298 14.0551C527.298 14.0551 527.801 11.8656 527.798 11.874L527.815 11.762L527.822 11.6761L528.023 11.6972C528.023 11.6972 529.06 11.7865 529.085 11.7881C529.494 11.9473 529.663 12.3557 529.545 12.8888C529.438 13.3755 529.122 13.7857 528.716 13.9827C528.382 14.1511 527.971 14.1646 527.55 14.1646H527.277L527.298 14.0551ZM530.43 15.9415C530.297 16.5082 530.144 17.544 531.092 17.9129C531.394 18.0417 531.665 18.0796 531.94 18.0662C532.23 18.0502 532.5 17.9045 532.749 17.6948C532.726 17.7807 532.704 17.8674 532.681 17.9533L532.724 18.0089C533.406 17.9803 533.617 17.9803 534.356 17.9862L534.422 17.9348C534.531 17.3007 534.632 16.6859 534.912 15.4733C535.049 14.8922 535.185 14.317 535.325 13.7385L535.303 13.6753C534.541 13.8168 534.337 13.8463 533.604 13.9507L533.548 13.9962C533.54 14.0551 533.533 14.1116 533.526 14.168C533.412 13.9836 533.247 13.8269 532.991 13.7284C532.665 13.6004 531.9 13.7654 531.241 14.365C530.778 14.7928 530.557 15.3789 530.43 15.9415ZM532.031 15.976C532.195 15.2779 532.382 14.6867 532.868 14.6867C533.175 14.6867 533.337 14.9697 533.304 15.4531C533.278 15.5735 533.249 15.7006 533.216 15.8447C533.167 16.0518 533.114 16.2581 533.064 16.4644C533.012 16.6051 532.951 16.7381 532.884 16.8266C532.759 17.0034 532.462 17.1137 532.291 17.1137C532.242 17.1137 531.942 17.1137 531.932 16.6716C531.929 16.4518 531.975 16.2253 532.031 15.976ZM540.392 13.6694L540.333 13.6021C539.578 13.7553 539.442 13.7798 538.749 13.8732L538.698 13.9238C538.696 13.9322 538.694 13.9448 538.69 13.9566L538.688 13.9448C538.172 15.1356 538.187 14.8787 537.767 15.8152C537.765 15.7731 537.765 15.7461 537.763 15.7006L537.658 13.6694L537.591 13.6021C536.801 13.7553 536.783 13.7798 536.052 13.8732L535.996 13.9238C535.988 13.9482 535.988 13.9751 535.983 14.0038L535.988 14.0139C536.079 14.4804 536.058 14.3768 536.148 15.112C536.191 15.4733 536.248 15.8362 536.291 16.1924C536.363 16.7895 536.403 17.0834 536.491 17.9937C535.999 18.8072 535.882 19.1146 535.407 19.8287L535.411 19.8355L535.076 20.3643C535.038 20.4199 535.003 20.4578 534.955 20.4746C534.901 20.5007 534.832 20.5058 534.736 20.5058H534.551L534.276 21.4203L535.22 21.4372C535.774 21.4347 536.122 21.1753 536.309 20.8275L536.903 19.8102H536.894L536.956 19.7386C537.355 18.8788 540.392 13.6694 540.392 13.6694ZM530.43 25.6882H530.03L531.512 20.7871H532.004L532.159 20.2818L532.174 20.8435C532.156 21.1904 532.43 21.4978 533.146 21.4473H533.976L534.261 20.5033H533.95C533.77 20.5033 533.687 20.4578 533.697 20.3609L533.682 19.7891H532.146V19.7925C531.649 19.8026 530.166 19.8405 529.865 19.9205C529.502 20.014 529.119 20.2894 529.119 20.2894L529.27 19.7832H527.833L527.534 20.7871L526.032 25.7632H525.741L525.454 26.7004H528.317L528.221 27.0129H529.631L529.725 26.7004H530.121L530.43 25.6882ZM529.256 21.7824C529.026 21.8465 528.598 22.0393 528.598 22.0393L528.979 20.7871H530.121L529.844 21.6991C529.844 21.6991 529.492 21.7201 529.256 21.7824ZM529.278 23.5728C529.278 23.5728 528.919 23.6174 528.683 23.6705C528.451 23.7412 528.014 23.9635 528.014 23.9635L528.408 22.6599H529.555L529.278 23.5728ZM528.638 25.7H527.493L527.825 24.5993H528.967L528.638 25.7ZM531.396 22.6599H533.047L532.809 23.428H531.137L530.886 24.2676H532.35L531.241 25.828C531.164 25.9425 531.094 25.9838 531.017 26.0158C530.939 26.0554 530.837 26.1017 530.719 26.1017H530.313L530.035 27.0213H531.097C531.648 27.0213 531.975 26.7703 532.216 26.4402L532.975 25.4002L533.139 26.4562C533.173 26.6541 533.316 26.7703 533.412 26.815C533.518 26.868 533.628 26.9598 533.783 26.9733C533.95 26.9809 534.069 26.9859 534.149 26.9859H534.671L534.985 25.9569H534.779C534.66 25.9569 534.458 25.9366 534.423 25.8996C534.388 25.8549 534.388 25.7859 534.369 25.6798L534.204 24.6221H533.526L533.823 24.2676H535.492L535.749 23.428H534.204L534.445 22.6599H535.986L536.271 21.7125H531.678L531.396 22.6599ZM517.453 25.9139L517.839 24.6322H519.422L519.712 23.6789H518.127L518.369 22.8898H519.917L520.205 21.9669H516.329L516.048 22.8898H516.929L516.694 23.6789H515.81L515.518 24.6482H516.398L515.884 26.3442C515.815 26.5691 515.917 26.6541 515.982 26.7585C516.048 26.8604 516.115 26.927 516.265 26.9657C516.421 27.0002 516.527 27.0213 516.671 27.0213H518.456L518.775 25.9653L517.983 26.0739C517.831 26.0739 517.407 26.0554 517.453 25.9139ZM517.635 19.7782L517.234 20.5033C517.148 20.6616 517.071 20.7601 517.001 20.8056C516.94 20.8435 516.818 20.8595 516.642 20.8595H516.433L516.153 21.7875H516.849C517.183 21.7875 517.44 21.6646 517.562 21.6031C517.694 21.5332 517.729 21.5728 517.831 21.4751L518.066 21.2713H520.237L520.525 20.3054H518.936L519.213 19.7782H517.635ZM520.841 25.9324C520.804 25.8794 520.83 25.7851 520.888 25.5897L521.48 23.6259H523.592C523.9 23.6208 524.122 23.6174 524.266 23.6073C524.422 23.5905 524.59 23.5357 524.774 23.4355C524.964 23.332 525.061 23.2216 525.144 23.0953C525.235 22.9698 525.382 22.6945 525.507 22.27L526.254 19.7832L524.063 19.7967C524.063 19.7967 523.388 19.8961 523.091 20.0056C522.792 20.1285 522.363 20.4704 522.363 20.4704L522.561 19.7891H521.208L519.313 26.0739C519.245 26.3173 519.201 26.495 519.19 26.6011C519.186 26.7156 519.335 26.8293 519.431 26.9143C519.544 27.0002 519.712 26.9859 519.873 27.0002C520.041 27.0129 520.282 27.0213 520.614 27.0213H521.654L521.973 25.9425L521.042 26.031C520.943 26.031 520.871 25.9779 520.841 25.9324ZM521.864 22.2987H524.081L523.94 22.7408C523.92 22.7509 523.873 22.7189 523.647 22.745H521.727L521.864 22.2987ZM522.308 20.8165H524.544L524.383 21.3488C524.383 21.3488 523.33 21.3386 523.16 21.3698C522.418 21.4978 521.984 21.8953 521.984 21.8953L522.308 20.8165ZM523.99 24.2204C523.971 24.2861 523.943 24.3265 523.902 24.3568C523.857 24.3854 523.784 24.3964 523.675 24.3964H523.359L523.378 23.8583H522.064L522.01 26.4891C522.008 26.6786 522.027 26.7889 522.166 26.8764C522.305 26.9868 522.733 27.0002 523.309 27.0002H524.132L524.43 26.0158L523.712 26.0545L523.474 26.0688C523.442 26.0545 523.411 26.0419 523.376 26.0074C523.346 25.9779 523.294 25.9964 523.303 25.8061L523.309 25.1316L524.061 25.1004C524.467 25.1004 524.64 24.969 524.788 24.8427C524.93 24.7223 524.975 24.5834 525.029 24.3964L525.155 23.7993H524.121L523.99 24.2204Z" fill="#FEFEFE"/>
<path d="M800.675 21.4411H803.924H804.317C804.988 21.311 805.469 20.7179 805.456 20.0349C805.432 19.3647 804.967 18.791 804.317 18.6286C804.186 18.6134 804.054 18.6134 803.924 18.6286H800.675V21.4411Z" fill="#40A648"/>
<path d="M803.544 0.951172C800.437 0.951172 797.919 3.46956 797.919 6.57617V12.4125H805.864C806.051 12.3908 806.24 12.3908 806.426 12.4125C808.213 12.4969 809.548 13.425 809.548 15.0281C809.512 16.4336 808.38 17.565 806.975 17.6012C808.803 17.7281 810.195 18.7406 810.195 20.3293C810.195 21.9188 808.648 23.1418 806.609 23.1418H797.891V34.7012H806.159C809.266 34.7012 811.784 32.1828 811.784 29.0762V0.951172H803.544Z" fill="#40A648"/>
<path d="M805.062 15.4492C805.113 14.7533 804.615 14.1378 803.924 14.043H803.614H800.675V16.7566H803.614C803.716 16.7727 803.821 16.7727 803.924 16.7566C804.584 16.6714 805.075 16.1017 805.062 15.4347V15.4492Z" fill="#40A648"/>
<path d="M772.409 0.951172C769.303 0.951172 766.784 3.46956 766.784 6.57617V20.4562C768.284 21.2421 769.943 21.6745 771.636 21.7219C772.424 21.8135 773.212 21.5539 773.792 21.0123C774.372 20.4707 774.683 19.7017 774.646 18.9094V12.3844H779.44V18.9094C779.44 21.4406 777.865 23.5074 772.522 23.5074C770.587 23.5066 768.661 23.2704 766.784 22.8043V34.7012H775.039C778.145 34.7012 780.664 32.1828 780.664 29.0762V0.951172H772.409Z" fill="#0D67B0"/>
<path d="M788.005 0.951172C784.898 0.951172 782.38 3.46956 782.38 6.57617V13.9313C783.786 12.7219 786.275 11.948 790.255 12.1449C791.744 12.2341 793.222 12.4599 794.671 12.8199V15.1969C793.365 14.4962 791.928 14.0743 790.452 13.9594C787.428 13.748 785.6 15.225 785.6 17.8262C785.6 20.4281 787.428 21.9324 790.452 21.6938C791.925 21.5588 793.357 21.1385 794.671 20.4562V22.8324C793.222 23.1956 791.745 23.4222 790.255 23.5074C786.275 23.7043 783.8 22.9313 782.38 21.7219V34.7012H790.69C793.797 34.7012 796.315 32.1828 796.315 29.0762V0.951172H788.005Z" fill="#BE2034"/>
<path fill-rule="evenodd" clip-rule="evenodd" d="M841.945 24.0249C841.945 24.9386 841.41 27.2167 838.162 27.2167H835.617V26.9781C835.63 26.9765 835.642 26.9757 835.654 26.9741C836.178 26.921 836.447 26.8937 836.447 26.2749V21.8449C836.447 21.0574 836.025 21.0574 835.617 21.0574V20.8187H838.275C839.193 20.7287 840.108 21.022 840.802 21.6287C841.497 22.2362 841.911 23.1032 841.945 24.0249ZM838.064 21.1562C837.825 21.1425 837.585 21.1425 837.347 21.1562L837.291 26.1343C837.291 26.8374 837.797 26.9218 838.247 26.9218C838.985 26.9508 839.7 26.6566 840.204 26.1166C840.71 25.5766 840.955 24.8446 840.876 24.1093C840.915 23.3395 840.636 22.5874 840.104 22.0289C839.573 21.4712 838.835 21.1554 838.064 21.1562Z" fill="white"/>
<path d="M844.222 27.2178V26.9792H844.068C843.8 26.9792 843.603 26.9792 843.603 26.6698V23.1542V23.0272C843.548 23.0144 843.491 23.0144 843.435 23.0272C843.113 23.1574 842.784 23.2707 842.45 23.3647V23.5053C842.788 23.6886 842.928 23.7448 842.928 24.1522V26.6272C842.928 26.9366 842.746 26.9366 842.493 26.9366H842.31V27.2178H844.278H844.222Z" fill="white"/>
<path d="M843.239 21.6773C843.361 21.6773 843.477 21.6283 843.562 21.5407C843.647 21.4531 843.693 21.335 843.689 21.2129C843.681 20.9702 843.482 20.7773 843.239 20.7773C842.99 20.7773 842.789 20.979 842.789 21.2273C842.789 21.4756 842.99 21.6773 843.239 21.6773Z" fill="white"/>
<path d="M849.075 27.0344H848.919C848.653 27.0344 848.456 27.0344 848.456 26.725V24.4051C848.456 23.702 848.188 23.125 847.401 23.125C846.814 23.1732 846.26 23.4159 845.826 23.8145V23.2238C845.826 23.1531 845.826 23.125 845.826 23.125C845.431 23.2929 845.028 23.4384 844.616 23.5613V23.7438C845.038 23.9125 845.151 24.0113 845.151 24.3488V26.7676C845.151 27.077 844.968 27.077 844.701 27.077H844.546V27.2176H846.501V26.9781H846.332C846.079 26.9781 845.882 26.9781 845.882 26.6688V24.025C846.19 23.7879 846.553 23.6337 846.937 23.575C847.159 23.5453 847.382 23.616 847.545 23.7687C847.709 23.9213 847.795 24.1391 847.781 24.3625V26.725C847.781 27.0344 847.598 27.0344 847.344 27.0344H847.176V27.2176H849.075V27.0344Z" fill="white"/>
<path fill-rule="evenodd" clip-rule="evenodd" d="M852.492 26.3733C852.13 26.9784 851.493 27.3673 850.79 27.4139C850.297 27.4035 849.828 27.1946 849.489 26.8354C849.151 26.4754 848.971 25.9948 848.99 25.5014C848.99 23.7014 850.2 23.1671 850.833 23.1671C851.229 23.1277 851.624 23.2579 851.919 23.5263C852.214 23.7947 852.381 24.1747 852.38 24.5733V24.7421H852.295H849.721C849.706 24.9205 849.706 25.0988 849.721 25.2764C849.689 26.0953 850.311 26.792 851.128 26.8514C851.605 26.8257 852.051 26.6072 852.365 26.2472L852.492 26.3733ZM850.79 23.3792C850.802 23.3784 850.813 23.3784 850.825 23.3792H850.79ZM850.835 23.3792C850.831 23.3792 850.828 23.3792 850.825 23.3792H850.861C850.852 23.3792 850.843 23.3792 850.835 23.3792ZM850.835 23.3792C851.039 23.3864 851.233 23.474 851.373 23.6243C851.523 23.7858 851.598 24.0036 851.578 24.223C851.578 24.3355 851.578 24.448 851.325 24.448H849.806C849.917 23.7971 850.286 23.3913 850.835 23.3792Z" fill="white"/>
<path d="M852.9 27.0348H852.646V27.2173H855.023V26.9786H854.517C854.25 26.9786 854.067 26.9786 854.067 26.6692V24.5735C854.07 24.1878 854.359 23.8632 854.742 23.8141C855.065 23.8141 855.065 24.0391 855.346 24.0391C855.465 24.0359 855.576 23.9845 855.656 23.8969C855.735 23.8093 855.776 23.6928 855.768 23.5755C855.768 23.4397 855.713 23.3095 855.614 23.2171C855.516 23.1239 855.383 23.0748 855.248 23.0829C854.7 23.0829 854.306 23.6735 854.081 24.0255V23.2098C854.081 23.111 854.081 23.0829 853.996 23.0829C853.912 23.0829 853.546 23.3223 852.871 23.6036V23.7442C853.012 23.7442 853.35 23.8704 853.35 24.1516V26.7255C853.336 27.0348 853.153 27.0348 852.9 27.0348Z" fill="white"/>
<path d="M857.329 27.1191C856.717 27.0862 856.224 26.6049 856.176 25.9942H856.007L856.12 27.0348C856.457 27.2333 856.839 27.3442 857.23 27.3586C858.314 27.3586 858.805 26.7117 858.805 26.1067C858.805 24.7004 856.682 24.9961 856.682 23.9274C856.693 23.7498 856.776 23.585 856.911 23.4709C857.046 23.3568 857.223 23.303 857.399 23.3223C857.922 23.2982 858.367 23.7 858.398 24.2223H858.637L858.567 23.2942C858.244 23.127 857.888 23.0354 857.526 23.0274C857.18 22.984 856.832 23.086 856.564 23.3102C856.297 23.5344 856.137 23.8599 856.12 24.2086C856.12 25.6149 858.117 25.3336 858.117 26.416C858.134 26.6225 858.052 26.8259 857.898 26.9641C857.743 27.1023 857.532 27.1593 857.329 27.1191Z" fill="white"/>
<path d="M866.878 26.9219L867.088 25.5863H866.878C866.739 26.4976 865.958 27.1718 865.035 27.175C863.409 27.0408 862.194 25.6249 862.307 23.9969C862.219 23.26 862.45 22.5207 862.941 21.9646C863.433 21.4086 864.138 21.0887 864.881 21.0863C865.839 20.961 866.719 21.6336 866.85 22.5906H867.075L866.976 21.2832C866.293 20.9971 865.565 20.8308 864.825 20.7906C862.976 20.7352 861.427 22.1776 861.351 24.025C861.296 24.9652 861.649 25.8828 862.32 26.5426C862.991 27.2031 863.914 27.5414 864.853 27.4707C865.558 27.4281 866.247 27.2417 866.878 26.9219Z" fill="white"/>
<path d="M869.366 27.218V26.9793H869.212C868.944 26.9793 868.748 26.9793 868.748 26.6699V20.3418V20.2148C868.748 20.2148 868.65 20.2148 868.551 20.3137C868.25 20.4744 867.935 20.607 867.609 20.7074V20.8617C867.946 20.9606 868.087 20.9742 868.087 21.5793V26.6699C868.087 26.9793 867.904 26.9793 867.651 26.9793H867.468V27.218H869.437H869.366Z" fill="white"/>
<path d="M869.887 23.9684V26.3164C869.855 26.5993 869.946 26.8821 870.137 27.0918C870.328 27.3024 870.602 27.4197 870.886 27.4133C871.507 27.3699 872.09 27.0943 872.517 26.6402V27.3851C872.95 27.2558 873.392 27.1569 873.839 27.0902V26.9352H873.543C873.389 26.9352 873.277 26.9351 873.277 26.7664V23.3914C873.277 23.2934 873.277 23.2227 873.277 23.2227C873.277 23.2227 872.672 23.2934 871.87 23.3496V23.5184C872.193 23.6027 872.63 23.7152 872.63 23.884V26.359C872.328 26.6483 871.945 26.8395 871.533 26.907C870.731 26.907 870.731 26.1195 870.731 25.8527V23.4902C870.731 23.2934 870.731 23.2227 870.633 23.2227L869.452 23.2934V23.4621C869.887 23.5039 869.887 23.7289 869.887 23.9684Z" fill="white"/>
<path fill-rule="evenodd" clip-rule="evenodd" d="M874.373 25.5289V21.5914C874.373 21.049 874.242 21.0168 873.88 20.9268C873.866 20.9236 873.853 20.9204 873.839 20.9164V20.7621C874.167 20.6673 874.483 20.5347 874.781 20.3684L874.992 20.2695C875.062 20.2695 875.062 20.3965 875.062 20.3965V23.757C875.441 23.3818 875.938 23.1487 876.468 23.0965C876.953 23.1182 877.408 23.3352 877.728 23.6984C878.049 24.0616 878.209 24.5397 878.17 25.0227C878.218 26.2891 877.241 27.3594 875.976 27.4277C875.534 27.4253 875.1 27.3144 874.711 27.1039L874.43 27.3152L874.246 27.2164C874.333 26.6587 874.376 26.0946 874.373 25.5289ZM875.976 23.532C875.643 23.5682 875.334 23.7233 875.105 23.9676L875.034 26.1894C875.055 26.7005 875.464 27.1103 875.976 27.132C876.974 27.132 877.383 26.1613 877.383 25.3457C877.434 24.4746 876.833 23.6992 875.976 23.532Z" fill="white"/>
<path d="M836.334 29.2703H835.602V29.4672H835.7C835.884 29.4672 836.038 29.4672 836.052 29.7348V32.3359C836.052 32.5891 835.884 32.6035 835.7 32.6035H835.574V32.8422H836.305H837.093V32.6598H837.05C836.868 32.6598 836.699 32.6598 836.699 32.3922V29.7067C836.699 29.4535 836.868 29.4391 837.05 29.4391H837.149V29.2422L836.334 29.2703Z" fill="white"/>
<path d="M840.707 29.2711H840.004V29.468H840.131C840.285 29.468 840.538 29.468 840.553 29.918V31.7461L838.359 29.2848C838.19 29.2848 838.049 29.2848 837.894 29.2848H837.318V29.4816H837.403C837.517 29.4784 837.628 29.521 837.71 29.6006C837.792 29.6801 837.839 29.7894 837.838 29.9035V32.0129C837.838 32.4066 837.74 32.618 837.403 32.618H837.29V32.843H837.979H838.612V32.6598H838.499C838.134 32.6598 838.063 32.5336 838.049 32.0973V30.0305L840.581 32.843H840.819C840.819 32.6879 840.819 32.5191 840.819 32.3504V30.0305C840.819 29.4535 841.044 29.4254 841.241 29.4254H841.34V29.2285L840.707 29.2711Z" fill="white"/>
<path d="M844.785 29.0879C844.785 29.2141 844.672 29.214 844.532 29.214H841.931C841.804 29.214 841.719 29.2141 841.678 29.0879H841.522C841.53 29.2237 841.53 29.3595 841.522 29.4953C841.522 29.6504 841.522 29.791 841.522 29.9172H841.719C841.804 29.5515 841.804 29.4816 842.169 29.4816H842.957V32.1254C842.957 32.5047 842.844 32.5047 842.563 32.5191H842.451V32.8422H843.294H844.096V32.6598H843.984C843.744 32.6598 843.59 32.6598 843.59 32.2516V29.5379H844.378C844.701 29.5379 844.715 29.8047 844.729 30.0016L844.912 29.9316V29.5234C844.912 29.3973 844.912 29.2566 844.912 29.116H844.771L844.785 29.0879Z" fill="white"/>
<path d="M847.767 31.8844C847.627 32.4469 847.374 32.475 846.783 32.475C846.459 32.475 846.192 32.475 846.192 32.1656V31.027H846.769C847.106 31.027 847.106 31.2094 847.134 31.5051H847.317C847.317 31.3082 847.317 31.125 847.317 30.9426C847.317 30.7594 847.317 30.5488 847.317 30.3519H847.121C847.121 30.6187 847.036 30.7594 846.755 30.7738H846.178V29.5082H846.853C847.359 29.5082 847.402 29.7469 847.43 30.0707H847.599C847.599 29.9301 847.599 29.7332 847.599 29.5644V29.2832H846.319H845.081V29.4801H845.165C845.349 29.4801 845.503 29.4801 845.517 29.7469V32.3488C845.517 32.6019 845.349 32.6156 845.165 32.6156H845.081V32.8406H846.403H847.809C847.809 32.5875 847.922 32.3207 847.978 32.0531H847.824L847.767 31.8844Z" fill="white"/>
<path fill-rule="evenodd" clip-rule="evenodd" d="M850.242 31.0285L851.085 32.2797C851.15 32.5111 851.365 32.6686 851.605 32.6598V32.8422L851.057 32.7578H850.579C850.195 32.2483 849.847 31.7132 849.539 31.1547H849.243V32.2797C849.257 32.6598 849.398 32.6598 849.637 32.6598H849.721V32.8422H848.864H848.146V32.5754H848.258C848.442 32.5754 848.596 32.491 848.596 32.3223V29.791C848.596 29.4391 848.414 29.4391 848.258 29.4391H848.146V29.2422H848.92H849.721C850.34 29.2422 850.93 29.4254 850.93 30.1422C850.921 30.5568 850.641 30.9168 850.242 31.0285ZM849.454 30.9297C849.946 30.9297 850.199 30.7609 850.199 30.1703C850.2 29.9887 850.124 29.8143 849.99 29.6914C849.857 29.5684 849.677 29.5074 849.496 29.5234H849.229V30.9297H849.454Z" fill="white"/>
<path d="M855.726 29.4391V29.2422H855.108H854.404V29.4391H854.531C854.686 29.4391 854.939 29.4391 854.952 29.8891V31.7172L852.731 29.2566C852.562 29.2566 852.421 29.2566 852.267 29.2566H851.69V29.4535H851.774C851.888 29.4495 851.999 29.4921 852.082 29.5716C852.164 29.6512 852.211 29.7605 852.211 29.8754V31.9703C852.211 32.3785 852.112 32.5891 851.774 32.5891H851.69V32.8422H852.379H853.012V32.6598H852.899C852.534 32.6598 852.464 32.5328 852.464 32.0973V30.0297L854.981 32.8422H855.22C855.22 32.6879 855.22 32.5191 855.22 32.3504V30.0297C855.22 29.4535 855.445 29.4254 855.642 29.4254H855.74L855.726 29.4391Z" fill="white"/>
<path fill-rule="evenodd" clip-rule="evenodd" d="M858.699 32.0202C858.76 32.1479 858.82 32.2773 858.82 32.3906C858.821 32.5015 858.879 32.6036 858.975 32.6582C859.071 32.7136 859.189 32.7136 859.284 32.6582V32.8406H858.609H857.85V32.6582H857.92C858.047 32.6582 858.216 32.6301 858.216 32.5312C858.197 32.4107 858.164 32.2926 858.117 32.1801L857.92 31.6176H856.823L856.669 32.1238C856.623 32.2476 856.585 32.3745 856.556 32.5031C856.556 32.6582 856.753 32.6582 856.907 32.6582H856.992V32.8406H856.387H855.853V32.5875C856.047 32.5899 856.219 32.4637 856.275 32.2781L857.062 29.9863C857.143 29.7806 857.209 29.5685 857.259 29.3531C857.422 29.3025 857.578 29.2318 857.723 29.1426V29.2687L858.637 31.8844C858.656 31.9294 858.678 31.9744 858.699 32.0202ZM856.795 31.2102H857.667L857.231 29.8738L856.795 31.2102Z" fill="white"/>
<path d="M862.096 29.0879C862.096 29.2141 861.984 29.214 861.843 29.214H859.256C859.129 29.214 859.031 29.2141 859.003 29.0879H858.834C858.848 29.2229 858.848 29.3595 858.834 29.4953C858.834 29.6504 858.834 29.791 858.834 29.9316H859.031C859.101 29.566 859.101 29.4953 859.466 29.4953H860.268V32.139C860.268 32.5191 860.141 32.5191 859.875 32.5328H859.748V32.8422H860.591H861.407V32.6598H861.295C861.056 32.6598 860.901 32.6598 860.901 32.2516V29.5379H861.703C862.012 29.5379 862.026 29.8047 862.04 30.0016L862.223 29.9316C862.215 29.7958 862.215 29.6592 862.223 29.5234C862.223 29.3973 862.223 29.2566 862.223 29.116H862.082L862.096 29.0879Z" fill="white"/>
<path d="M863.165 29.2703H862.42V29.4672H862.504C862.687 29.4672 862.855 29.4672 862.855 29.7348V32.3359C862.855 32.5891 862.687 32.6035 862.504 32.6035H862.42V32.8422H863.151H863.939V32.6598H863.84C863.657 32.6598 863.502 32.6598 863.502 32.3922V29.7067C863.502 29.4535 863.657 29.4391 863.84 29.4391H863.939V29.2422L863.165 29.2703Z" fill="white"/>
<path fill-rule="evenodd" clip-rule="evenodd" d="M864.604 29.7114C864.954 29.3626 865.428 29.1682 865.921 29.1722C866.415 29.1248 866.906 29.2863 867.275 29.6182C867.644 29.9492 867.856 30.4201 867.862 30.9159C867.882 31.4302 867.687 31.9292 867.325 32.2949C866.962 32.6597 866.464 32.8582 865.95 32.8421C865.454 32.8702 864.97 32.6902 864.612 32.3455C864.255 32.0016 864.056 31.5242 864.065 31.0284C864.061 30.535 864.256 30.0609 864.604 29.7114ZM867.116 31.0284C867.116 30.2972 866.723 29.439 865.921 29.439C865.063 29.439 864.81 30.1984 864.81 30.8597C864.81 31.7452 865.063 32.5753 866.006 32.5753C866.948 32.5753 867.116 31.7597 867.116 31.0284Z" fill="white"/>
<path d="M871.996 29.4391V29.2422H871.391H870.688V29.4391H870.815C870.956 29.4391 871.222 29.4391 871.222 29.8891V31.7172L869.029 29.2566C868.86 29.2566 868.719 29.2566 868.579 29.2566H868.002V29.4535H868.087C868.2 29.4495 868.309 29.4921 868.39 29.5725C868.469 29.652 868.513 29.7621 868.509 29.8754V31.9848C868.509 32.3785 868.41 32.5891 868.087 32.5891H868.002V32.8422H868.677H869.324V32.6598H869.225C868.846 32.6598 868.79 32.5328 868.775 32.0973V30.0297L871.293 32.8422H871.518C871.504 32.6783 871.504 32.5135 871.518 32.3504V30.0297C871.518 29.4535 871.729 29.4254 871.94 29.4254H872.038L871.996 29.4391Z" fill="white"/>
<path fill-rule="evenodd" clip-rule="evenodd" d="M874.907 31.8844C874.96 32.0563 875.021 32.2251 875.09 32.3906C875.095 32.4814 875.14 32.565 875.214 32.6164C875.289 32.6686 875.383 32.6839 875.469 32.6582V32.8406H874.78H874.035V32.6582H874.105C874.218 32.6582 874.387 32.6301 874.387 32.5312C874.367 32.4115 874.334 32.2934 874.288 32.1801L874.105 31.6176H873.191L873.037 32.1238C872.985 32.2452 872.947 32.3729 872.924 32.5031C872.924 32.6582 873.107 32.6582 873.275 32.6582V32.8406H872.671H872.137V32.5875C872.326 32.5835 872.49 32.4589 872.544 32.2781L873.346 29.9863C873.426 29.7806 873.492 29.5685 873.543 29.3531C873.7 29.3001 873.852 29.2294 873.993 29.1426V29.2687L874.907 31.8844ZM873.051 31.2102H873.923L873.501 29.8738L873.051 31.2102Z" fill="white"/>
<path d="M878.325 31.8723C878.294 31.9976 878.242 32.1166 878.17 32.2234C878.053 32.3641 877.887 32.4541 877.706 32.4766H877.059C876.905 32.4766 876.778 32.4066 876.778 32.2098V29.6922C876.778 29.4391 876.905 29.4391 877.087 29.4391H877.242V29.2422H876.483H875.695V29.4391H875.78C875.962 29.4391 876.131 29.4391 876.131 29.7067V32.266C876.131 32.5609 875.962 32.5754 875.78 32.5754H875.695V32.8422H877.017H878.325C878.325 32.5609 878.452 32.2797 878.508 31.9984H878.325V31.8723Z" fill="white"/>
<path fill-rule="evenodd" clip-rule="evenodd" d="M877.817 29.6591C877.813 29.3739 878.038 29.1376 878.324 29.1296C878.465 29.1223 878.603 29.1738 878.705 29.2726C878.807 29.3715 878.862 29.5089 878.858 29.6503C878.858 29.9356 878.628 30.1678 878.342 30.1702C878.057 30.1726 877.823 29.9444 877.817 29.6591ZM877.903 29.6085C877.903 29.8415 878.091 30.0304 878.325 30.0304C878.436 30.0304 878.544 29.9862 878.623 29.9066C878.702 29.8279 878.746 29.7202 878.746 29.6085C878.746 29.3755 878.558 29.1866 878.325 29.1866C878.091 29.1866 877.903 29.3755 877.903 29.6085Z" fill="white"/>
<path fill-rule="evenodd" clip-rule="evenodd" d="M878.55 29.5098C878.551 29.5853 878.497 29.6512 878.423 29.6649V29.7774L878.536 29.9035H878.437C878.401 29.9035 878.37 29.8561 878.326 29.7886C878.303 29.7516 878.275 29.709 878.24 29.6649V29.8336H878.1V29.4399V29.3691H878.367C878.465 29.3691 878.55 29.4117 878.55 29.5098ZM878.268 29.4262V29.6649H878.282C878.381 29.6649 878.381 29.6086 878.381 29.5387C878.386 29.5074 878.375 29.476 878.354 29.4535C878.331 29.431 878.3 29.4214 878.268 29.4262Z" fill="white"/>
<path d="M859.143 19.6092C864.081 19.6373 868.162 15.7665 868.396 10.8342C868.366 8.41862 867.371 6.11558 865.633 4.43772C863.895 2.76066 861.558 1.84781 859.143 1.90487H854.924C852.541 1.85022 850.239 2.77353 848.555 4.46103C846.87 6.14772 845.95 8.45076 846.009 10.8342C846.062 15.7126 850.045 19.6325 854.924 19.6092H859.143Z" fill="#0779BE"/>
<path fill-rule="evenodd" clip-rule="evenodd" d="M855.009 2.63672C850.535 2.63672 846.909 6.26324 846.909 10.7367C846.909 15.2102 850.535 18.8367 855.009 18.8367C859.482 18.8367 863.109 15.2102 863.109 10.7367C863.109 6.26324 859.482 2.63672 855.009 2.63672ZM849.876 10.7367C849.878 8.61208 851.185 6.70681 853.167 5.941V15.5316C851.183 14.769 849.874 12.8622 849.876 10.7367ZM860.139 10.7367C860.139 8.60806 858.826 6.70038 856.837 5.941V15.5316C858.826 14.7723 860.139 12.8646 860.139 10.7367Z" fill="white"/>
<path d="M859.143 19.6092C864.081 19.6373 868.162 15.7665 868.396 10.8342C868.366 8.41862 867.371 6.11558 865.633 4.43772C863.895 2.76066 861.558 1.84781 859.143 1.90487H854.924C852.541 1.85022 850.239 2.77353 848.555 4.46103C846.87 6.14772 845.95 8.45076 846.009 10.8342C846.062 15.7126 850.045 19.6325 854.924 19.6092H859.143Z" fill="#0779BE"/>
<path fill-rule="evenodd" clip-rule="evenodd" d="M855.009 2.63672C850.535 2.63672 846.909 6.26324 846.909 10.7367C846.909 15.2102 850.535 18.8367 855.009 18.8367C859.482 18.8367 863.109 15.2102 863.109 10.7367C863.109 6.26324 859.482 2.63672 855.009 2.63672ZM849.876 10.7367C849.878 8.61208 851.185 6.70681 853.167 5.941V15.5316C851.183 14.769 849.874 12.8622 849.876 10.7367ZM860.139 10.7367C860.139 8.60806 858.826 6.70038 856.837 5.941V15.5316C858.826 14.7723 860.139 12.8646 860.139 10.7367Z" fill="white"/>
<g opacity="0.01">
<path opacity="0.01" d="M416.456 0H362.021V36H416.456V0Z" fill="#ECECF1"/>
</g>
<path d="M396.417 6.27148H382.06V29.7277H396.417V6.27148Z" fill="#7272B5"/>
<path d="M383.606 18.0003C383.582 13.4353 385.656 9.11204 389.231 6.27254C383.114 1.46212 374.327 2.16067 369.048 7.87695C363.767 13.5936 363.767 22.4079 369.048 28.1245C374.327 33.8403 383.114 34.5394 389.231 29.7285C385.656 26.8894 383.582 22.5662 383.606 18.0003Z" fill="#ED1C24"/>
<path fill-rule="evenodd" clip-rule="evenodd" d="M411.928 26.7601V27.2383H411.844V26.7601H411.647V26.6621H412.14V26.7601H411.928ZM412.884 26.6621V27.2383H412.786V26.8027L412.631 27.182H412.519L412.35 26.8027V27.2383H412.252V26.6621H412.393L412.575 27.0695L412.744 26.6621H412.884Z" fill="#00A1DE"/>
<path d="M413.362 18.0003C413.358 23.7089 410.098 28.9152 404.964 31.4103C399.83 33.9054 393.722 33.2529 389.231 29.7292C395.7 24.6354 396.82 15.2649 391.734 8.78975C391.005 7.85198 390.165 7.00687 389.231 6.27256C393.722 2.7485 399.83 2.0956 404.964 4.59093C410.098 7.08626 413.358 12.2925 413.362 18.0003Z" fill="#00A1DE"/>
<defs>
<clipPath id="clip0_1494_1436">
<rect width="78.031" height="30.4511" fill="white" transform="translate(664.963 2.85547)"/>
</clipPath>
<clipPath id="clip1_1494_1436">
<rect width="40.9187" height="30.4511" fill="white" transform="translate(223.087 2.85547)"/>
</clipPath>
<clipPath id="clip2_1494_1436">
<rect width="73.273" height="30.4511" fill="white" transform="translate(567.9 2.85547)"/>
</clipPath>
<clipPath id="clip3_1494_1436">
<rect width="50.4347" height="30.4511" fill="white" transform="translate(287.796 2.85547)"/>
</clipPath>
<clipPath id="clip4_1494_1436">
<rect width="41.8703" height="30.4511" fill="white" transform="translate(157.427 2.85547)"/>
</clipPath>
<clipPath id="clip5_1494_1436">
<rect width="85.6438" height="28.5479" fill="white" transform="translate(0 3.80664)"/>
</clipPath>
</defs>
</svg>
